<?xml version="1.0" encoding="utf-8"?>
<!-- Generator: Adobe Illustrator 16.0.0, SVG Export Plug-In . SVG Version: 6.00 Build 0)  -->
<!DOCTYPE svg PUBLIC "-//W3C//DTD SVG 1.1//EN" "http://www.w3.org/Graphics/SVG/1.1/DTD/svg11.dtd">
<svg version="1.1" xmlns="http://www.w3.org/2000/svg" xmlns:xlink="http://www.w3.org/1999/xlink" x="0px" y="0px"
	 width="841.89px" height="595.28px" viewBox="0 0 841.89 595.28" enable-background="new 0 0 841.89 595.28" xml:space="preserve">
<g id="Fond">
	<line stroke="#000000" stroke-width="3" stroke-miterlimit="10" x1="391.404" y1="472.759" x2="789.546" y2="472.759"/>
	<path stroke="#000000" stroke-width="3" stroke-miterlimit="10" d="M391.404,472.759"/>
	<line stroke="#000000" stroke-width="3" stroke-miterlimit="10" x1="23.667" y1="472.759" x2="303.3" y2="472.759"/>
</g>
<g id="C">
	<g>
		<g id="XMLID_2_">
			<g>
				<polygon fill="#294772" points="808.51,501.437 787.425,513.683 772.702,469.716 793.786,457.393 				"/>
				<path fill="#294772" d="M793.786,457.393l-21.084,12.323c-160.073-3.73-254.654-70.465-254.654-152.918
					c0-40.7,23.025-77.54,63.521-105.222c-30.342,25.855-48.918,58.579-48.918,93.901
					C532.651,388.086,633.474,453.662,793.786,457.393z"/>
				<polygon fill="#294772" points="791.218,104.219 776.465,148.263 772.852,150.476 755.381,161.152 770.104,117.186 				"/>
				<path fill="#294772" d="M791.218,104.219l-21.114,12.966c-78.096,2.855-145.559,21.224-196.567,50.012
					C626.426,131,701.894,107.461,791.218,104.219z"/>
				<path fill="#3A6BB4" d="M581.569,211.576c-40.496,27.682-63.521,64.522-63.521,105.222c0,82.453,94.581,149.188,254.654,152.918
					l14.723,43.967c-194.536-3.73-316.98-90.12-316.98-196.885c0-59.711,38.315-113.068,103.092-149.6
					c51.009-28.788,118.472-47.157,196.567-50.012l-14.723,43.967C683.079,164.419,623.141,183.148,581.569,211.576z"/>
			</g>
			<g>
				<path fill="none" stroke="#000000" stroke-miterlimit="10" d="M776.465,148.263l14.753-44.044
					c-89.324,3.242-164.792,26.781-217.682,62.979"/>
				<path fill="none" stroke="#000000" stroke-miterlimit="10" d="M807.345,501.334c1.104,0.103,0,0,1.165,0.103l-14.724-44.044
					c-160.313-3.73-261.135-69.307-261.135-151.915c0-35.322,18.576-68.046,48.918-93.901"/>
				<path fill="none" stroke="#000000" stroke-miterlimit="10" d="M770.104,117.186c-78.096,2.855-145.559,21.224-196.567,50.012
					c-64.776,36.532-103.092,89.889-103.092,149.6c0,106.765,122.444,193.154,316.98,196.885l-14.723-43.967
					c-160.073-3.73-254.654-70.465-254.654-152.918c0-40.7,23.025-77.54,63.521-105.222c41.571-28.428,101.51-47.157,173.812-50.424
					L770.104,117.186z"/>
				<line fill="none" stroke="#000000" stroke-miterlimit="10" x1="770.104" y1="117.186" x2="791.218" y2="104.219"/>
				<line fill="none" stroke="#000000" stroke-miterlimit="10" x1="772.852" y1="150.476" x2="776.465" y2="148.263"/>
				<line fill="none" stroke="#000000" stroke-miterlimit="10" x1="755.381" y1="161.152" x2="772.852" y2="150.476"/>
				<line fill="none" stroke="#000000" stroke-miterlimit="10" x1="772.702" y1="469.716" x2="793.786" y2="457.393"/>
				<line fill="none" stroke="#000000" stroke-miterlimit="10" x1="787.425" y1="513.683" x2="808.51" y2="501.437"/>
			</g>
		</g>
	</g>
</g>
<g id="G">
	<g>
		<g id="XMLID_3_">
			<g>
				<polygon fill="#528BAC" points="816.516,327.025 817.752,435.016 802.446,443.081 801.19,443.081 801.19,335.09 				"/>
				<polygon fill="#528BAC" points="816.516,327.025 801.19,335.09 801.19,335.055 738.772,335.055 738.753,335.043 
					753.999,327.025 				"/>
				<path fill="#75C3ED" d="M636.363,215.167c33.888-16.261,76.782-25.963,123.464-25.963l-10.675,27.339
					c-30.042,0-58.082,5.207-81.727,14.209c-43.13,16.415-71.759,45.45-71.759,78.553c0,51.272,91.892,100.423,168.791,100.423
					l-0.157-12.939l-0.49-41.37h-30.905l5.867-20.364h62.418v0.035v107.991c-135.06-3.084-240.059-67.38-240.059-133.775
					C561.132,271.138,590.507,237.157,636.363,215.167z"/>
				<polygon fill="#528BAC" points="764.458,208.526 749.152,216.543 759.827,189.205 775.152,181.14 				"/>
				<path fill="#528BAC" d="M775.152,181.14l-15.325,8.065c-46.682,0-89.576,9.702-123.464,25.963
					C672.194,194.103,721.151,181.14,775.152,181.14z"/>
				<path fill="#528BAC" d="M764.301,396.789l0.157,12.939c-76.899,0-168.791-49.15-168.791-100.423
					c0-33.104,28.629-62.138,71.759-78.553c-35.771,17.02-58.71,43.422-58.71,73.085
					C608.716,355.218,679.297,396.789,764.301,396.789z"/>
			</g>
			<g>
				<path fill="none" stroke="#000000" stroke-miterlimit="10" d="M764.242,208.526c0.196,0,0,0,0.216,0l10.694-27.386
					c-54.001,0-102.958,12.963-138.789,34.028c-0.274,0.154-0.549,0.309-0.823,0.475"/>
				<path fill="none" stroke="#000000" stroke-miterlimit="10" d="M764.301,396.789c-85.004,0-155.585-41.571-155.585-92.951
					c0-29.664,22.938-56.065,58.71-73.085c1.06-0.498,2.119-0.984,3.198-1.471"/>
				<path fill="none" stroke="#000000" stroke-miterlimit="10" d="M764.458,409.729c-76.899,0-168.791-49.15-168.791-100.423
					c0-33.104,28.629-62.138,71.759-78.553c23.645-9.002,51.685-14.209,81.727-14.209l10.675-27.339
					c-46.682,0-89.576,9.702-123.464,25.963c-45.856,21.99-75.231,55.97-75.231,94.138c0,66.396,104.999,130.691,240.059,133.775
					V335.09v-0.035h-62.418l-5.867,20.364h30.905l0.49,41.37L764.458,409.729"/>
				<line fill="none" stroke="#000000" stroke-miterlimit="10" x1="759.827" y1="189.205" x2="775.152" y2="181.14"/>
				<line fill="none" stroke="#000000" stroke-miterlimit="10" x1="749.152" y1="216.543" x2="764.458" y2="208.526"/>
				<polyline fill="none" stroke="#000000" stroke-miterlimit="10" points="738.674,335.09 738.753,335.043 753.999,327.025 
					816.516,327.025 801.19,335.09 				"/>
				<polyline fill="none" stroke="#000000" stroke-miterlimit="10" points="816.516,327.025 817.752,435.016 802.446,443.081 				
					"/>
			</g>
		</g>
	</g>
</g>
<g id="my">
	<g>
		<path d="M300.706,442.317c6.327,0.221,9.894,0.7,10.704,1.435c0.956,0.736,1.287,1.805,0.994,3.2
			c-0.148,0.59-0.441,1.142-0.882,1.657c-0.662,0.732-1.436,1.101-2.318,1.101c-0.663,0-1.252-0.184-1.765-0.551
			c-0.221-0.221-0.406-0.441-0.552-0.662c-45.761-0.221-69.708-0.221-71.841,0c-1.692,0.514-2.869-0.035-3.531-1.655
			c-0.81-1.912-0.44-3.162,1.104-3.752c0.367-0.221,0.772-0.368,1.213-0.441c0.146-0.073,0.257-0.11,0.331-0.11h0.331
			c2.648,0.515,5.443,0.661,8.387,0.441v-0.552c-0.294-0.146-0.479-0.368-0.552-0.662c-0.073-1.03,0.073-1.654,0.442-1.875
			l0.11-0.112v-0.771l0.11-5.297c0-2.795,0.036-5.077,0.109-6.842c-0.147-0.221-0.147-0.477,0-0.772c0-2.133,0.037-4.12,0.111-5.959
			h-0.111c-0.22-0.514-0.183-1.03,0.111-1.546c0.072-3.897,0.11-7.65,0.11-11.256c-0.516,0.221-0.92,0.111-1.213-0.331
			c-0.37-0.514-0.296-0.955,0.22-1.323l0.994-0.662v-4.745h-0.11c-0.294-0.073-0.516-0.258-0.663-0.552
			c-0.369-0.662-0.109-1.544,0.773-2.649c0-4.267,0-8.202,0-11.808c-0.074-0.293-0.074-0.588,0-0.884c0-1.91-0.038-3.788-0.11-5.626
			c-0.148-0.293-0.148-0.624,0-0.994c-0.074-1.766-0.111-3.383-0.111-4.856c-0.368-0.07-0.625-0.256-0.772-0.552
			c-0.295-0.44-0.073-1.029,0.663-1.765c-0.22-5.59-0.516-9.746-0.882-12.472c-0.222-1.91-0.442-3.421-0.663-4.524
			c-0.811,0.371-1.363,0.517-1.656,0.443c-0.221-0.072-0.406-0.221-0.552-0.443c-0.294-0.512,0.257-1.506,1.656-2.979
			c-0.516-2.574-1.252-4.414-2.207-5.517c-0.369-0.515-1.252-1.03-2.648-1.547l-0.331-0.219c-1.03-0.368-1.804-0.698-2.317-0.995
			c-1.766,0.517-3.311,1.068-4.635,1.657c-3.091,1.544-5.738,3.861-7.946,6.952c-0.736,1.03-1.508,2.797-2.317,5.296v0.222
			c-0.075,0.368-0.148,0.736-0.221,1.103c-0.148-0.073-0.11-0.035,0.111,0.112c0.22-0.074,0.441-0.074,0.662,0
			c0.221,0.073,0.404,0.219,0.552,0.438c0.368,0.592,0.257,1.068-0.331,1.437h-0.109l-0.111,0.11
			c0.073,0.369,0.036,0.735-0.11,1.103c0,0.076-0.038,0.149-0.11,0.222c-0.075,0.22-0.185,0.405-0.331,0.552
			c0,1.251,0.036,4.563,0.11,9.932c0.293-0.221,0.404-0.332,0.331-0.332c0.588-0.365,1.03-0.257,1.325,0.332
			c0.366,0.516,0.293,0.957-0.221,1.324l-1.435,1.104c0,5.148,0,7.651,0,7.503l0.331,36.306c0.073,9.049,0.11,14.751,0.11,17.104
			v0.112c0,3.75,0,6.363,0,7.835c3.751,0,6.143,0.039,7.173,0.109c0.367-0.07,0.772-0.035,1.213,0.11
			c1.397,0.296,2.169,1.104,2.318,2.429c0.073,0.148,0.109,0.258,0.109,0.331c0,0.735-0.259,1.398-0.772,1.985
			c-0.441,0.517-1.031,0.847-1.766,0.993l-0.22,0.11c-0.442,0.072-0.883,0.036-1.325-0.11c-1.694,0-7.578,0-17.656,0l-20.195-0.108
			c-18.688,0-28.95,0-30.789,0h-0.882c-1.252,0.365-2.281,0.035-3.09-0.995c-0.221-0.221-0.369-0.477-0.441-0.772
			c-0.149,0.369-0.369,0.7-0.662,0.993c-0.516,0.515-1.178,0.81-1.986,0.883c-0.221,0.072-0.442,0.11-0.662,0.11
			c-0.37,0-0.701-0.073-0.994-0.219c-13.611-0.295-36.785-0.443-69.522-0.443h-5.738c-0.516,0.221-0.994,0.331-1.435,0.331
			c-1.766-0.221-2.648-1.213-2.648-2.979c0-0.957,0.332-1.767,0.992-2.429c0.662-0.589,1.397-0.883,2.208-0.883h12.469
			c0-2.131-0.038-5.555-0.111-10.263c-0.074-0.221-0.074-0.405,0-0.552c-0.074-8.092-0.22-18.612-0.441-31.561H83.42
			c-0.516-0.147-0.882-0.403-1.104-0.772c-0.368-0.735,0.256-1.839,1.876-3.311c-0.22-11.771-0.405-22.328-0.551-31.672l-0.11-0.112
			c-0.221-0.365-0.185-0.771,0.11-1.213c-0.075-5.442-0.148-9.341-0.221-11.697c-0.074-2.72-0.11-4.928-0.11-6.62
			c-0.075-0.885-0.11-1.767-0.11-2.649c-5.076,0-8.094,0.038-9.049,0.112c-0.662,0-1.213,0.035-1.656,0.108
			c-0.148,0.075-0.331,0.11-0.551,0.11h-0.221c-0.148,0-0.258,0-0.331,0c-1.839,0-2.869-0.882-3.089-2.647
			c-0.074-0.883,0.182-1.657,0.772-2.319c0.514-0.586,1.14-0.882,1.876-0.882c0.073-0.072,0.183-0.11,0.331-0.11h0.331
			c0.663-0.072,1.396-0.147,2.207-0.221c1.25-0.073,4.083-0.111,8.497-0.111h14.567c8.68,0.076,15.559,0.111,20.636,0.111
			c9.636,0,15.631-0.073,17.987-0.221c0.146-0.146,0.293-0.256,0.442-0.33c1.691-0.81,2.979-0.367,3.862,1.323
			c0.588,1.103,0.551,2.206-0.111,3.311c-0.294,0.369-0.663,0.662-1.103,0.883c0.071,1.104,0.146,2.87,0.22,5.297
			c2.648-3.604,5.259-6.142,7.835-7.613c6.031-3.604,15.007-5.261,26.926-4.968c9.271,0.223,18.024,2.171,26.265,5.851
			c4.266,1.84,8.239,4.672,11.917,8.496c0.368-0.146,0.589-0.219,0.662-0.219c0.293,0.073,0.515,0.258,0.663,0.551
			c0.146,0.294,0.072,0.625-0.221,0.993c0.442,0.517,0.883,1.103,1.324,1.765c0.589-1.471,1.251-2.685,1.987-3.642
			c2.941-3.972,6.327-6.914,10.152-8.827s10.153-3.238,18.982-3.974c1.986-0.147,4.083-0.221,6.289-0.221
			c4.266,0,8.57,0.259,12.912,0.772l0.331,0.11c5.811,0.662,10.115,1.583,12.911,2.76c1.397,0.59,2.76,1.252,4.083,1.985
			c0.809-0.221,1.396-0.293,1.766-0.221c0.441,0.073,0.734,0.295,0.883,0.662c0.22,0.369,0.22,0.735,0,1.104
			c2.354,1.472,4.303,3.018,5.848,4.635c2.871,3.019,5.259,7.174,7.173,12.471c0.809,2.134,1.397,5.076,1.766,8.827l0.11,0.554
			c0.368,3.604,0.625,9.637,0.772,18.097l0.111,0.109c0.367,0.662,0.332,1.4-0.111,2.208c0.073,4.268,0.146,10.042,0.221,17.325
			c0-0.071,0.146-0.182,0.441-0.33c0.293-0.147,0.551-0.183,0.773-0.112c0.293,0.077,0.478,0.223,0.551,0.442
			c0.367,0.662-0.22,1.583-1.766,2.761v4.854c0.072,0.148,0.146,0.221,0.222,0.221c0.22,0.441,0.146,0.922-0.222,1.434v0.995
			c0,8.534,0.037,16.553,0.11,24.058c0.662-0.368,1.14-0.516,1.436-0.441l-0.222,0.883l0.442,0.883
			c-0.149,0.073-0.22,0.109-0.22,0.109S301.515,441.804,300.706,442.317z M87.062,339.799v0.221l0.331-0.221H87.062z
			 M87.393,343.772c0.146-0.81,0.293-1.437,0.442-1.875l-0.773,0.438c0,0.662,0.036,1.289,0.111,1.877v0.772
			c0.071-0.292,0.109-0.441,0.109-0.441S87.319,344.287,87.393,343.772z M87.282,352.158c1.617-1.616,4.193-4.082,7.725-7.394
			c-4.194,2.797-6.659,4.12-7.394,3.974c-0.074-0.072-0.184-0.147-0.331-0.221c0,1.104,0,1.913,0,2.428V352.158z M87.504,359.773
			c8.458-6.473,15.228-11.809,20.305-16.001L87.393,355.91L87.504,359.773z M88.497,366.726
			c16.699-10.962,27.918-19.128,33.657-24.499l-34.65,20.525c0.071,4.121,0.146,7.836,0.22,11.147l32.885-24.058
			c-3.531,2.061-8.056,4.783-13.573,8.165c-10.447,6.255-16.186,9.641-17.216,10.152c-0.074,0.075-0.147,0.148-0.22,0.221
			c-0.369,0.148-0.625,0.186-0.772,0.11c-0.441-0.072-0.699-0.331-0.772-0.772c0-0.441,0-0.662,0-0.662
			S88.202,366.946,88.497,366.726z M87.724,376.325c0-0.071,0.036,1.362,0.111,4.305c12.138-8.829,22.658-16.479,31.561-22.952
			L87.724,376.325z M87.835,383.168c0,1.473,0.036,2.688,0.109,3.642c1.397-2.278,5.04-5.663,10.925-10.152L87.835,383.168z
			 M87.944,389.79c0,0.661,0,1.654,0,2.978c1.545-1.102,3.532-2.464,5.96-4.083c-2.576,1.105-4.342,1.546-5.297,1.325
			C88.386,390.01,88.166,389.938,87.944,389.79z M88.055,396.521c8.753-4.191,24.498-14.088,47.231-29.686v-3.309
			c-3.09,2.575-11.625,8.313-25.602,17.214c-11.109,7.138-18.318,11.918-21.629,14.347V396.521z M105.38,388.905
			c-7.725,4.783-13.5,7.985-17.325,9.602c0,0.368,0,0.847,0,1.434l0.111,1.325C94.124,397,99.862,392.879,105.38,388.905z
			 M100.415,399.832c18.17-11.991,28.984-19.68,32.443-23.064c-1.914,1.179-6.18,4.046-12.8,8.607
			c-18.247,12.58-28.876,18.944-31.892,19.092v3.751C88.899,407.484,92.983,404.686,100.415,399.832z M88.275,412.521
			c0,1.104,0,1.951,0,2.537l8.718-5.187c21.997-13.313,34.871-22.4,38.624-27.256v-0.11l-46.349,27.479
			c-0.369,0.148-0.701,0.11-0.994-0.112V412.521z M88.386,419.253c0,0.884,0,1.509,0,1.877c2.648-2.722,10.556-8.681,23.725-17.878
			l-14.456,8.607c-3.164,1.914-6.29,3.753-9.38,5.519L88.386,419.253z M88.386,424.439c0.073,4.342,0.11,5.629,0.11,3.862
			l34.872-25.05c-1.104,0.736-2.944,1.987-5.518,3.752C100.415,418.85,90.593,424.66,88.386,424.439z M88.606,440.662
			c3.016-2.573,7.54-5.958,13.573-10.152c-6.77,4.563-10.778,6.731-12.029,6.511c-0.368-0.147-0.662-0.368-0.882-0.662
			c-0.294-0.514-0.185-0.955,0.331-1.323l42.265-31.452c-4.782,2.281-15.338,8.938-31.671,19.974
			c-6.107,4.048-10.005,6.623-11.697,7.726L88.606,440.662z M95.78,339.799c-2.061,0-4.011,0-5.849,0
			c0.073,0.369-0.147,1.84-0.662,4.414c-0.148,1.031-0.258,1.73-0.331,2.097c1.177-0.662,3.753-2.316,7.725-4.966
			c0.809-0.587,1.544-1.065,2.207-1.434L95.78,339.799z M134.404,355.579c-29.503,18.025-44.584,28.876-45.246,32.555
			c3.457,0.81,18.797-8.607,46.018-28.25c0-0.146-0.038-1.286-0.109-3.421c0-0.294,0.035-0.553,0.109-0.772
			c0.293-0.589,0.551-1.104,0.773-1.545c-0.589-0.368-0.882-0.919-0.882-1.656l-0.111-4.084l-0.331,0.223
			c-1.324,1.179-9.123,6.989-23.395,17.436c-1.914,1.398-4.341,3.164-7.283,5.297l29.464-17.436
			c0.587-0.368,1.029-0.257,1.324,0.329C135.102,354.846,134.991,355.287,134.404,355.579z M97.104,444.193l25.381-19.533
			L89.6,444.193H97.104z M116.857,405.348c9.784-6.693,16.073-10.85,18.87-12.469c0-0.512,0-1.617,0-3.312
			c-26.043,17.437-41.31,28.326-45.796,32.665C92.872,421.13,101.849,415.502,116.857,405.348z M103.173,339.91
			c-0.441,0.44-1.434,1.363-2.979,2.758c-4.414,4.048-7.652,7.101-9.711,9.16l19.976-11.918H103.173z M135.396,373.677
			c0-1.617,0-2.979,0-4.082c-2.501,1.914-9.674,7.101-21.518,15.561c-7.504,5.444-15.303,11.035-23.396,16.772
			c3.973-1.767,13.464-7.836,28.471-18.209c10.08-6.913,15.522-10.261,16.333-10.042H135.396z M135.949,409.984
			c-20.601,13.537-35.424,23.8-44.473,30.789l44.031-26.044c0.146-0.072,0.293-0.109,0.442-0.109V409.984z M115.091,339.91
			c-2.061,2.28-7.763,7.062-17.105,14.344l24.058-14.344H115.091z M101.077,444.305c1.911,0,4.376,0,7.394,0l20.967-16.886
			L101.077,444.305z M135.838,403.031l-32.445,24.168c1.325-0.882,3.458-2.354,6.402-4.414c14.859-10.52,23.54-15.854,26.043-16.001
			V403.031z M134.845,346.421c0-1.913-0.038-3.423-0.11-4.523l-31.011,22.729l30.458-18.097
			C134.404,346.383,134.624,346.348,134.845,346.421z M110.678,424.552c5.664-3.899,12.21-8.314,19.642-13.243
			c-3.605,2.134-10.08,6.473-19.422,13.022C110.897,424.331,110.824,424.404,110.678,424.552z M135.949,421.351v-4.524
			l-25.271,19.423L135.949,421.351z M126.127,339.91c-0.811,2.206-5.04,6.179-12.691,11.918
			c10.962-6.622,17.73-10.632,20.306-12.029C131.976,339.872,129.438,339.91,126.127,339.91z M114.098,444.305
			c1.546,0,3.531,0.038,5.959,0.109c5.002-4.854,9.122-8.9,12.36-12.139c-1.474,0.883-3.862,2.467-7.173,4.745
			C120.02,440.553,116.306,442.979,114.098,444.305z M135.507,380.188v-3.643c-1.765,2.502-8.351,7.652-19.754,15.45
			L135.507,380.188z M135.949,424.771l-19.974,16.003c1.838-1.178,4.596-2.98,8.276-5.407c6.546-4.489,10.446-6.953,11.698-7.395
			V424.771z M135.838,400.604c0-1.766,0-3.053,0-3.862l-16.443,11.81c9.122-5.74,14.567-8.39,16.332-7.947H135.838z
			 M124.471,442.869c3.09-1.838,6.879-4.34,11.367-7.503l0.11-3.862C134.255,433.268,130.431,437.059,124.471,442.869z
			 M134.624,438.565c-3.605,2.502-6.585,4.452-8.938,5.849h6.178C132.086,443.385,133.004,441.436,134.624,438.565z
			 M135.617,385.375c-1.398,1.473-3.349,3.201-5.849,5.187l5.849-3.531V385.375z M135.396,444.193
			c0.073-0.734,0.148-1.876,0.221-3.42c-0.516,1.03-0.957,1.913-1.324,2.647c0.221,0.075,0.404,0.221,0.552,0.44
			c0.072,0.149,0.11,0.371,0.11,0.662h0.441V444.193z M158.902,442.648c1.544,0,2.795,0,3.751,0c0-0.293,0.037-0.845,0.11-1.655
			c-0.148-0.072-0.184-0.072-0.11,0c-0.22-0.072-0.405-0.258-0.551-0.553c-0.296-0.441-0.038-1.139,0.772-2.096
			c0.22-7.283,0.441-15.742,0.661-25.382h-0.11c-0.295-0.072-0.516-0.22-0.662-0.441c-0.295-0.513-0.184-0.954,0.331-1.324
			l0.552-0.33c0.22-9.858,0.332-18.686,0.332-26.486c-0.074-0.146-0.074-0.183,0-0.108c-0.221-0.368-0.221-0.736,0-1.104
			c0.072-7.576,0.037-13.72-0.111-18.429c-0.294,0.221-0.331,0.259-0.11,0.11c-0.295,0.148-0.551,0.184-0.772,0.11
			c-0.294-0.073-0.479-0.221-0.551-0.441c-0.295-0.516,0.146-1.397,1.324-2.649c-0.073-2.574-0.185-4.524-0.331-5.849
			c-0.441-3.531-1.031-5.959-1.766-7.282c-1.398-2.429-3.238-4.23-5.518-5.407c-0.441-0.221-1.103-0.368-1.987-0.442
			c-0.44,0.222-0.736,0.295-0.882,0.222l0.111-0.331h-0.221c-0.441,0-0.921-0.037-1.435-0.111c-0.882,0.295-1.655,0.627-2.317,0.992
			c-2.723,1.695-5.997,5.668-9.821,11.919l-0.221,0.441c-0.148,0.296-0.294,0.552-0.441,0.773c0.071,2.355,0.146,4.893,0.221,7.614
			c0.146-0.072,0.257-0.072,0.331,0c0.293,0,0.513,0.148,0.662,0.441c0.22,0.368,0.109,0.772-0.331,1.214v0.11
			c0.367-0.222,0.146-0.072-0.662,0.44c0.146,6.476,0.257,12.802,0.331,18.981l0.22,0.11c0.221,0.441,0.146,0.848-0.22,1.213
			c0.072,0.812,0.11,2.245,0.11,4.305c0.367-0.072,0.624-0.072,0.772,0c0.368,0.075,0.662,0.259,0.882,0.552
			c0.294,0.516,0.184,0.957-0.331,1.324l-1.323,0.884c0.146,9.71,0.221,18.062,0.221,25.049l0.551-0.331
			c0.588-0.366,1.029-0.293,1.325,0.221c0.367,0.517,0.293,0.994-0.221,1.436l-1.655,1.324c0,10.08-0.111,17.031-0.331,20.856
			c5.369,0.075,8.718,0.148,10.042,0.222c0.514,0,0.918,0.074,1.213,0.22c0.955,0.22,1.582,0.7,1.876,1.435
			c0.073-0.071,0.111-0.146,0.111-0.221c0.513-1.104,1.434-1.655,2.758-1.655c0.221,0,0.442,0,0.662,0L158.902,442.648z
			 M157.026,338.915c-0.811,0.222-1.104,0.295-0.884,0.222l0.441,0.111l0.221-0.111c0.146-0.072,0.221-0.111,0.221-0.111
			S157.026,338.99,157.026,338.915z M160.227,339.357c-0.295,0.148-0.812,0.441-1.544,0.883c0.513,0.294,1.029,0.662,1.544,1.104
			V339.357z M162.103,342.889l8.938-5.297c-3.089,0-6.033,0.185-8.828,0.553L162.103,342.889z M163.316,344.435
			c0.663,0.81,1.213,1.582,1.655,2.316c1.104-1.324,2.906-3.494,5.407-6.511L163.316,344.435z M167.289,355.47
			c0.072,0.81,0.146,1.803,0.22,2.979c1.839-1.618,4.23-3.604,7.173-5.96c-3.165,1.987-5.225,2.869-6.18,2.649
			c-0.369-0.146-0.625-0.368-0.772-0.662c-0.295-0.514,0.845-1.987,3.42-4.415c3.751-3.604,6.473-6.289,8.167-8.056
			c-0.589,0.368-0.701,0.441-0.331,0.221c-6.475,4.269-10.669,6.879-12.58,7.835C166.627,351.093,166.92,352.895,167.289,355.47z
			 M166.738,438.896c-0.076,2.061-0.149,3.531-0.222,4.414c0.809-0.512,2.39-1.545,4.747-3.089
			c21.188-13.757,34.355-22.88,39.505-27.369L166.738,438.896z M166.847,434.592c3.825-3.236,9.933-7.761,18.32-13.572
			c-10.449,7.062-16.223,10.484-17.326,10.263c-0.369-0.146-0.625-0.367-0.772-0.662l-0.11-0.11
			c-0.074,1.839-0.111,2.758-0.111,2.758S166.847,433.71,166.847,434.592z M181.304,338.365c-2.135-0.368-4.193-0.589-6.18-0.662
			c-3.459,4.047-6.18,7.32-8.166,9.82c2.059-1.249,5.738-3.567,11.035-6.951C179.759,339.396,180.862,338.659,181.304,338.365z
			 M166.958,429.626c0.588-1.248,7.944-6.693,22.071-16.33c6.4-4.416,10.997-7.615,13.793-9.603l-35.754,21.188
			C167.068,426.354,167.031,427.936,166.958,429.626z M167.178,422.344c0.884-0.662,3.422-2.354,7.615-5.076
			c17.729-11.697,29.169-19.679,34.321-23.947c-25.898,16.333-39.618,24.315-41.163,23.947c-0.295-0.072-0.516-0.258-0.662-0.552
			C167.289,418.629,167.251,420.507,167.178,422.344z M167.62,415.392c20.451-14.86,34.872-25.382,43.258-31.561
			c-4.855,2.575-14.567,8.645-29.134,18.208c-7.358,4.783-12.102,7.833-14.235,9.158c-0.074,1.693-0.11,3.164-0.11,4.415
			C167.399,415.54,167.471,415.465,167.62,415.392z M184.063,396.19c-9.27,5.517-14.678,8.094-16.223,7.724l-0.22-0.11
			c-0.074,1.474-0.111,2.869-0.111,4.193L184.063,396.19z M200.285,377.649l-32.554,19.313l-0.11,4.524L200.285,377.649z
			 M168.171,367.938c-0.589-1.028,4.782-6.142,16.111-15.339c-2.354,1.398-7.872,4.71-16.552,9.932
			c0.072,3.018,0.11,6.806,0.11,11.368l13.132-10.265c-6.18,3.754-10.08,5.446-11.697,5.078
			C168.76,368.639,168.392,368.38,168.171,367.938z M207.789,357.896c-8.167,4.267-21.482,12.58-39.949,24.939v4.745
			L207.789,357.896z M197.416,358.559c-8.462,5.006-17.951,10.669-28.472,16.995c-0.368,0.221-0.7,0.184-0.993-0.11l-0.111,4.855
			C179.318,371.912,189.175,364.665,197.416,358.559z M167.84,391.996c1.325-1.176,3.016-2.574,5.076-4.193
			c-2.723,1.474-4.414,2.171-5.076,2.098V391.996z M214.631,362.421c-24.869,15.378-40.428,26.081-46.68,32.114l46.68-27.7V362.421z
			 M214.961,403.583c-21.85,14.198-37.189,24.757-46.017,31.671l44.914-26.595c0.221-0.146,0.478-0.183,0.773-0.108
			c0.071,0.073,0.182,0.146,0.33,0.219V403.583z M175.896,444.636c2.133-1.837,8.939-7.025,20.416-15.56
			c-12.138,7.576-20.856,12.763-26.153,15.56H175.896z M203.374,345.979c-1.618-1.176-3.31-2.133-5.076-2.868
			c-1.619-0.736-3.496-1.436-5.628-2.098c-9.197,7.063-16.627,12.912-22.292,17.546c14.86-8.828,23.064-13.646,24.608-14.455
			c-0.293,0.293-0.147,0.184,0.442-0.331v0.108c0.441-0.221,0.734-0.293,0.882-0.221c0.368,0.074,0.589,0.333,0.662,0.774
			c0.073,0.368-0.038,0.7-0.331,0.992c-13.832,10.89-22.439,17.987-25.823,21.299c3.751-1.03,13.721-7.32,29.906-18.871
			C202.196,346.824,203.08,346.199,203.374,345.979z M172.255,351.717c2.427-1.396,6.731-4.229,12.911-8.496
			c2.133-1.397,3.678-2.429,4.634-3.091c-1.765-0.514-3.64-0.955-5.627-1.323c-0.295,1.323-4.193,5.555-11.698,12.689l-0.111,0.111
			L172.255,351.717z M172.586,400.384c8.018-3.974,22.069-12.727,42.155-26.264c-0.074-1.03-0.11-2.539-0.11-4.525L172.586,400.384z
			 M214.741,383.279c-1.914,1.544-9.234,6.951-21.96,16.22c-4.414,3.238-8.866,6.476-13.354,9.711
			c9.195-5.442,20.453-12.396,33.769-20.854c0.221-0.147,0.478-0.185,0.773-0.112c0.22,0.076,0.402,0.222,0.551,0.441
			c1.104,1.915-5.335,7.653-19.311,17.217l17.656-10.484c0.221-0.072,0.478-0.072,0.773,0c0.22,0.073,0.403,0.221,0.551,0.441
			c0.735,1.252-7.284,7.614-24.057,19.092c-7.505,5.076-12.654,8.645-15.449,10.705c2.428-1.619,6.693-4.488,12.801-8.609
			c15.301-10.373,24.424-15.963,27.368-16.772L214.741,383.279z M200.064,368.821c7.575-4.78,12.505-7.87,14.787-9.269v-0.112
			l-0.22-0.329c-0.296-0.514-0.406-1.03-0.331-1.546l0.109-0.11c-0.59-0.146-1.031-0.439-1.324-0.883v-0.109l-35.754,26.594
			c4.487-2.72,6.732-4.083,6.732-4.083S189.396,375.592,200.064,368.821z M188.918,444.636c-0.147-1.03,6.106-6.694,18.76-16.996
			c2.059-1.69,3.493-2.831,4.304-3.421c-5.445,1.987-16.296,8.793-32.555,20.417H188.918z M204.92,347.192l-0.11,0.221
			l-23.506,18.43c14.051-8.388,22.99-13.685,26.816-15.891c-1.031-1.03-1.546-1.547-1.546-1.547S206.023,348.004,204.92,347.192z
			 M182.958,434.925c9.417-5.738,20.084-12.396,32.002-19.975v-4.083C213.269,413.884,202.603,421.902,182.958,434.925z
			 M214.741,376.657l-24.167,17.216c13.314-8.534,21.37-13.205,24.167-14.016V376.657z M199.402,444.746l9.159-9.934
			c-9.49,5.666-15.046,8.939-16.663,9.823L199.402,444.746z M193.442,363.965c9.122-5.663,15.155-8.937,18.098-9.819
			c-0.662-0.955-1.213-1.729-1.656-2.317c-0.736,0.516-2.245,1.618-4.524,3.311C202.122,357.565,198.15,360.509,193.442,363.965z
			 M215.071,423.998c-0.515,0.517-2.575,2.246-6.18,5.188c-6.107,5.002-10.521,8.645-13.242,10.925
			c4.708-2.723,10.667-6.252,17.877-10.594c0.442-0.295,0.845-0.185,1.214,0.329c0.368,0.442,0.33,0.848-0.11,1.215l-8.719,9.491
			c4.266-2.722,7.356-4.598,9.271-5.628C215.183,432.275,215.145,428.633,215.071,423.998z M215.071,417.599
			c-4.487,3.309-8.607,6.364-12.36,9.158c6.18-3.604,10.043-5.223,11.589-4.854c0.293,0,0.551,0.11,0.771,0.33V417.599z
			 M209.444,444.746l5.738-7.615c-2.502,1.473-6.511,4.011-12.029,7.615H209.444z M215.183,440.332l-2.648,3.529l2.648-1.544
			V440.332z M215.292,444.746c0.294,0.956,0.294,0.881,0-0.223l-0.221,0.223H215.292z M236.923,339.578h0.109l0.222,0.11
			c-0.076,0-0.038,0.038,0.109,0.11c0.073-0.146,0.184-0.257,0.331-0.33C236.37,339.688,236.111,339.727,236.923,339.578z
			 M239.461,340.682c0.882,0.515,1.617,1.104,2.206,1.766c-0.074-1.174-0.148-2.134-0.22-2.869L239.461,340.682z M245.641,338.586
			l-2.318,0.221c0.073,0.882,0.146,2.206,0.22,3.973c3.162-2.133,5.48-3.604,6.953-4.414
			C248.656,338.365,247.036,338.438,245.641,338.586z M243.323,345.317c0.293,0.589,0.551,1.288,0.772,2.096
			c2.648-2.795,4.597-4.927,5.849-6.4C248.029,342.19,245.823,343.625,243.323,345.317z M244.647,349.621
			c4.339-2.502,10.151-6.071,17.435-10.706c-2.944-0.291-5.813-0.477-8.608-0.55C253.917,339.248,250.974,342.998,244.647,349.621z
			 M256.676,344.655c-4.931,3.091-8.793,5.444-11.588,7.062c0.222,1.178,0.442,2.502,0.662,3.974c0-0.147,0.073-0.258,0.222-0.332
			L256.676,344.655z M245.971,357.565c0.146,1.104,0.293,2.538,0.441,4.304l23.726-19.753c-5.738,3.165-13.391,8.094-22.953,14.787
			c-0.516,0.296-0.958,0.221-1.325-0.221v-0.11v0.443c0.073,0.219,0.11,0.329,0.11,0.329S245.971,357.419,245.971,357.565z
			 M246.523,363.965c0.072,1.105,0.146,2.283,0.22,3.532c2.059-1.545,6.877-5.038,14.457-10.481
			c9.416-6.916,15.559-11.479,18.43-13.685l-0.222-0.11c-3.9,2.061-11.367,6.805-22.402,14.234
			C250.531,361.869,247.036,364.041,246.523,363.965z M246.743,443.861h0.993c0.368-2.278,6.731-7.574,19.091-15.89
			c-10.373,6.179-17.069,10.117-20.084,11.807V443.861z M246.854,370.809c0.072,1.324,0.11,2.649,0.11,3.973l24.83-18.761
			L246.854,370.809z M246.854,430.51c24.865-15.301,40.279-25.933,46.238-31.894l-46.127,27.259L246.854,430.51z M246.854,436.91
			l16.773-12.029c-8.167,4.931-13.758,7.91-16.773,8.939V436.91z M246.964,423.557c25.896-15.668,42.338-26.815,49.328-33.436
			c0,1.323,0,0.957,0-1.104c-7.799,4.047-24.206,13.979-49.218,29.794L246.964,423.557z M247.074,380.078
			c2.869-2.279,8.57-6.179,17.105-11.698c-8.094,4.931-13.794,8.204-17.105,9.821V380.078z M247.074,414.729
			c3.162-2.354,10.411-7.025,21.74-14.015c14.346-8.756,23.21-14.567,26.596-17.436c-1.621,1.029-4.747,3.089-9.38,6.18
			c-23.47,15.377-36.271,22.807-38.404,22.291c-0.147-0.073-0.293-0.147-0.44-0.221L247.074,414.729z M290.223,357.565
			c-4.855,0.884-19.201,9.749-43.037,26.595c0,1.474,0.035,3.091,0.11,4.857c0.733-0.662,3.751-2.832,9.049-6.512
			C276.576,368.528,287.867,360.215,290.223,357.565z M247.186,393.763c3.161-2.28,9.857-6.474,20.084-12.581
			c15.08-9.122,24.093-15.045,27.036-17.768l-46.349,27.368c-0.22,0.148-0.478,0.184-0.771,0.11V393.763z M247.186,402.148
			c23.173-16.625,38.402-27.552,45.687-32.773c-8.315,3.9-23.544,13.39-45.687,28.47V402.148z M295.85,374.562
			c-5.076,0.662-21.298,10.667-48.665,30.016c0,1.839,0,3.347,0,4.523c1.25-1.545,7.906-6.031,19.973-13.463
			c16.995-10.444,26.596-17.03,28.802-19.752C295.961,375.592,295.923,375.15,295.85,374.562z M296.072,380.52
			c0-0.736,0-1.396,0-1.987c-3.165,3.091-12.471,9.381-27.92,18.871c-10.374,6.329-16.554,10.338-18.54,12.029
			c3.973-1.618,15.782-8.865,35.424-21.74C290.921,383.869,294.599,381.476,296.072,380.52z M258.993,443.861l0.11-0.109
			c16.626-11.182,28.433-19.644,35.423-25.382l-42.928,25.491H258.993z M296.512,411.088c-1.618,1.03-4.745,3.054-9.379,6.069
			c-19.276,12.36-31.047,20.415-35.312,24.167l44.691-26.374v-2.429V411.088z M288.899,350.613c-0.516-0.588-0.958-1.14-1.325-1.654
			c-0.441-0.368-0.92-0.81-1.435-1.325l-33.436,25.271C261.457,367.903,273.521,360.474,288.899,350.613z M269.918,340.02
			c-1.325-0.293-3.054-0.551-5.187-0.771c-0.075,0.221-0.149,0.368-0.222,0.44l-9.711,9.602
			C261.272,344.949,266.312,341.859,269.918,340.02z M271.683,416.937c-4.709,3.163-9.932,6.548-15.669,10.152
			c10.298-5.884,23.763-14.494,40.389-25.823c0-1.544,0-2.831,0-3.862C294.857,400.493,286.617,407.004,271.683,416.937z
			 M284.374,346.31c-0.882-0.734-1.84-1.396-2.869-1.987c-2.428,1.987-8.829,6.732-19.202,14.236
			c-2.649,1.915-4.635,3.349-5.958,4.306L284.374,346.31z M277.201,342.116c-0.442-0.219-0.736-0.366-0.883-0.441
			c-0.295-0.072-0.92-0.293-1.876-0.662l-14.567,12.139C267.967,347.708,273.743,344.031,277.201,342.116z M261.2,429.076
			c9.932-5.886,21.701-12.874,35.312-20.967l-0.109-4.416L261.2,429.076z M269.918,443.861c1.175-1.027,4.008-3.199,8.497-6.511
			c9.71-7.136,15.45-11.695,17.215-13.682c-4.562,1.913-15.598,8.645-33.106,20.192H269.918z M294.306,361.098
			c-0.147-0.368-0.294-0.699-0.44-0.994c-0.295-0.954-0.7-1.949-1.215-2.979c-0.294,1.767-8.204,8.094-23.726,18.981
			L294.306,361.098z M296.512,425.544c-1.986,2.134-7.613,6.62-16.882,13.463c-2.136,1.546-3.716,2.687-4.747,3.421
			c3.016-1.838,7.687-4.817,14.016-8.939c4.486-2.94,6.915-4.374,7.282-4.302c0.146,0.073,0.258,0.146,0.331,0.219V425.544z
			 M290.001,435.144c-6.179,4.048-10.741,6.954-13.683,8.718c2.428,0,4.892,0,7.394,0c-0.221-1.027,1.913-3.971,6.4-8.826h-0.111
			V435.144z M281.726,395.087c6.693-3.974,11.549-6.693,14.567-8.168l-0.111-1.764C293.605,387.289,288.788,390.6,281.726,395.087z
			 M292.099,355.91c-0.515-1.029-1.031-1.985-1.545-2.869c-1.473,1.325-4.193,3.312-8.166,5.96c4.707-2.574,7.725-3.714,9.049-3.422
			C291.657,355.655,291.878,355.764,292.099,355.91z M295.63,369.815c-0.957,0.661-3.054,2.171-6.29,4.524
			c-2.648,1.914-4.377,3.164-5.187,3.753c5.589-3.163,9.49-4.93,11.696-5.298C295.776,371.69,295.703,370.698,295.63,369.815z
			 M296.512,430.951c-0.22,0.369-0.92,1.177-2.096,2.428c-3.901,4.121-6.511,6.99-7.835,8.607c2.428-1.324,5.775-3.457,10.042-6.399
			L296.512,430.951z M293.974,439.778c-2.942,1.987-5.225,3.386-6.841,4.194c1.25,0,2.428,0,3.531,0
			c0.515-0.662,1.177-1.507,1.987-2.537C293.165,440.773,293.605,440.222,293.974,439.778z M296.292,392.658
			c-2.134,1.913-5.114,4.232-8.938,6.953l7.724-4.524c0.22-0.147,0.478-0.183,0.771-0.112c0.222,0.075,0.404,0.221,0.553,0.442
			L296.292,392.658z M296.512,419.145c-1.618,1.472-3.715,3.161-6.29,5.074c3.016-1.616,5.112-2.537,6.29-2.758V419.145z
			 M295.079,365.181c-0.811,0.735-1.804,1.583-2.98,2.537c1.251-0.587,2.318-1.03,3.2-1.323
			C295.225,365.952,295.151,365.549,295.079,365.181z M293.974,444.083c0.883-0.514,1.767-1.065,2.649-1.655v-2.979
			c-0.516,0.809-1.325,1.875-2.428,3.199c-0.368,0.516-0.737,0.993-1.104,1.435h0.442
			C293.754,444.083,293.901,444.083,293.974,444.083z"/>
		<path d="M456.1,336.487c2.428,0.297,3.641,1.324,3.641,3.091c0,1.766-1.104,2.758-3.31,2.979H456.1
			c-0.148,0.075-0.295,0.11-0.442,0.11h-0.221c-0.516,0-1.031-0.146-1.545-0.441c-2.647-0.072-6.4-0.146-11.256-0.221
			c-0.295,0.736-0.847,1.215-1.654,1.436c-1.325,2.868-4.6,10.594-9.823,23.173l-1.214,2.87
			c-9.195,22.22-15.633,37.152-19.311,44.803c-9.71,20.455-17.693,35.718-23.947,45.797c-1.473,2.429-2.538,4.193-3.2,5.297
			c-7.211,11.846-13.022,19.424-17.436,22.733c-2.798,2.206-7.836,4.231-15.12,6.069l-0.551,0.22
			c-1.178,0.296-1.914,0.481-2.207,0.552c-0.442,0.444-0.921,0.734-1.435,0.882c-0.368,0.148-0.736,0.225-1.103,0.225
			c-1.031,0-2.648,0.109-4.855,0.328c-2.648,0.224-4.635,0.334-5.96,0.334c-1.986,0-3.679-0.187-5.076-0.553
			c-5.076-1.178-9.16-3.388-12.249-6.623c-2.87-2.867-4.82-6.326-5.849-10.373l-0.11-0.33c-0.148-0.515-0.221-0.994-0.221-1.435
			c-0.958-5.593-0.22-10.557,2.207-14.897c2.428-4.27,6.804-7.946,13.132-11.036c2.428-1.251,5.554-2.024,9.38-2.317
			c0.588-0.073,1.176-0.111,1.766-0.111c3.161,0,5.921,0.442,8.275,1.324c3.973,1.398,7.026,3.273,9.16,5.63
			c2.06,2.279,3.568,5.187,4.525,8.717l0.11,0.112c0.147,0.221,0.183,0.44,0.109,0.659c0.074,0.443,0.112,0.627,0.112,0.554
			c0.808,3.897,0.698,8.128-0.331,12.69c-0.662,2.721-1.803,5.331-3.42,7.837c2.72-0.958,4.78-1.986,6.18-3.092
			c3.897-2.868,9.231-9.896,16.001-21.077c0.661-1.179,1.728-2.943,3.2-5.298l0.55-0.992c0.37-0.592,0.663-1.068,0.884-1.436
			c-0.515-0.881-1.473-2.868-2.868-5.959c-1.032,0.662-1.399,0.884-1.105,0.662c-0.219,0.146-0.478,0.183-0.772,0.11
			c-0.219-0.073-0.405-0.221-0.551-0.442c-0.369-0.661,0.037-1.726,1.213-3.2c-0.662-1.396-1.434-3.126-2.316-5.186l-1.435-3.312
			c-1.913-4.192-3.42-7.539-4.524-10.041c-0.811,0.516-1.363,0.736-1.656,0.662c-0.221-0.072-0.405-0.221-0.551-0.441
			c-0.369-0.662,0.036-1.507,1.213-2.537c-0.369-0.736-0.772-1.657-1.213-2.761c-1.252,0.662-2.061,0.958-2.428,0.883
			c-0.294-0.071-0.517-0.256-0.663-0.551c-0.294-0.441-0.221-0.845,0.221-1.214l1.876-1.324c-0.59-1.25-1.105-2.428-1.545-3.531
			c-0.958,0.662-1.509,1.03-1.656,1.104c-0.589,0.368-1.067,0.295-1.435-0.221c-0.294-0.515-0.184-0.956,0.331-1.324
			c-0.073,0,0.552-0.479,1.876-1.434c-0.221-0.516-0.625-1.437-1.214-2.761c-0.37,0.076-0.663,0.076-0.883,0
			c-0.515-0.072-0.882-0.292-1.104-0.662c-0.294-0.513-0.184-0.954,0.331-1.325c0.443-0.291,0.624-0.401,0.553-0.329
			c-4.93-10.741-8.719-18.723-11.367-23.947c-0.884-1.765-1.914-3.752-3.09-5.959c-1.103,0.809-1.545,1.142-1.325,0.993
			c-0.516,0.369-0.957,0.294-1.325-0.22c-0.368-0.515-0.294-0.994,0.222-1.437l1.544-1.104c-1.398-2.499-2.833-5.148-4.304-7.944
			c-1.031,0.441-1.729,0.625-2.096,0.551c-0.296-0.146-0.516-0.33-0.662-0.551c-0.37-0.662,0-1.618,1.103-2.87
			c-1.398-2.499-2.833-5.038-4.304-7.615l-0.884,0.554c-0.589,0.294-1.03,0.147-1.324-0.441c-0.294-0.441,0.037-1.215,0.994-2.318
			c-0.663-1.103-1.399-2.317-2.208-3.643v-0.108c-0.956-1.618-1.839-3.127-2.648-4.524c-0.147-0.074-0.183-0.074-0.109,0
			c-0.295-0.221-0.441-0.516-0.441-0.883c-1.325-2.279-2.318-3.973-2.98-5.078c-0.074-0.146-0.147-0.256-0.22-0.33l-0.11-0.11
			c-2.501,0.075-4.488,0.149-5.958,0.222c-1.178,0.073-2.392,0.257-3.642,0.552h-0.331c-0.59,0.219-1.142,0.257-1.656,0.11
			c-0.22,0-0.37-0.037-0.441-0.11c-1.473-0.514-2.171-1.508-2.097-2.98c0.073-1.618,0.919-2.539,2.538-2.759
			c0.146,0,0.293,0,0.442,0h0.551c1.324-0.293,2.76-0.478,4.304-0.552c3.162-0.294,15.963-0.477,38.403-0.553l7.946-0.109
			c14.566-0.072,23.797-0.11,27.699-0.11c0.735-0.514,1.471-0.697,2.207-0.552c0.073,0,0.293,0.038,0.662,0.109h0.331
			c2.869,0.297,4.229,1.362,4.083,3.2c0,1.474-0.957,2.394-2.869,2.76c-1.619,0.221-6.034,0.331-13.243,0.331
			c0.515,1.179,1.287,2.907,2.318,5.187c0.512-0.219,0.919-0.293,1.212-0.219c0.368,0.073,0.625,0.257,0.774,0.55
			c0.293,0.516,0.219,0.957-0.221,1.325l-0.663,0.441c1.618,3.529,4.707,10.078,9.27,19.643l1.104,2.428
			c1.323,2.723,2.427,5.039,3.31,6.953c0.734-0.147,1.287-0.185,1.656-0.112c0.441,0.074,0.772,0.296,0.994,0.662
			c0.293,0.442-0.149,1.143-1.325,2.097c3.603,7.652,6.069,12.949,7.393,15.892c2.428-5.59,6.253-14.639,11.478-27.146l1.103-2.539
			c5.518-13.313,9.085-21.739,10.704-25.271c-8.093,0-13.683,0.148-16.773,0.441c-0.294,0.441-0.701,0.773-1.213,0.994
			c-0.296,0.073-0.662,0.108-1.104,0.108c-1.252,0-2.135-0.514-2.647-1.544c-0.737-1.249-0.773-2.428-0.112-3.532
			c1.104-1.544,8.35-2.316,21.741-2.316c5.957,0,12.689,0.11,20.193,0.33H456.1z M331.289,462.623
			c-8.021,4.707-13.501,7.834-16.442,9.379c-0.074,1.177-0.039,2.39,0.11,3.643L331.289,462.623z M315.397,478.292
			c0.809,3.163,2.318,5.922,4.525,8.279l29.354-22.625c-3.385,1.767-9.749,5.775-19.09,12.029
			c-7.432,5.004-11.516,7.428-12.25,7.284c-0.294-0.076-0.516-0.261-0.662-0.553c-0.294-0.441-0.22-0.848,0.222-1.214l22.181-17.216
			L315.397,478.292z M316.942,464.498c-0.589,0.957-1.067,2.133-1.434,3.532c3.973-3.46,7.282-6.401,9.932-8.829
			c-1.766,1.029-2.834,1.471-3.201,1.325c-0.294,0-0.516-0.149-0.662-0.442c-0.148-0.221-0.185-0.439-0.111-0.662
			C319.333,461.188,317.826,462.879,316.942,464.498z M336.255,453.021c-1.987,0.147-3.643,0.403-4.966,0.774
			c0.22,0.07,0.403,0.219,0.551,0.439c0.514,0.956-3.679,5.333-12.58,13.133c6.18-3.605,13.905-8.167,23.175-13.685
			c0.513-0.294,0.955-0.221,1.324,0.221c0.293,0.516,0.221,0.955-0.221,1.325l-20.305,16.222l26.264-15.118
			c-1.473-0.958-3.054-1.729-4.746-2.318c-1.914-0.662-4.23-0.993-6.951-0.993H336.255z M328.42,454.898
			c-1.914,0.955-3.827,2.132-5.738,3.53c1.249-0.662,3.641-2.061,7.173-4.193C329.192,454.528,328.713,454.749,328.42,454.898z
			 M325.331,490.431C325.402,490.358,325.402,490.358,325.331,490.431c5.369-4.044,10.556-8.018,15.559-11.918
			c-8.682,5.591-14.75,9.05-18.208,10.374C323.49,489.473,324.373,489.992,325.331,490.431z M356.118,466.152
			c-0.368-1.472-0.846-2.831-1.434-4.082c-0.073,0.146-0.185,0.259-0.331,0.332L322.791,486.9c5.371-2.43,16.333-9.27,32.887-20.525
			C355.824,466.3,355.971,466.227,356.118,466.152z M327.426,491.426c1.104,0.438,2.169,0.771,3.201,0.99
			c0.441,0.148,0.955,0.258,1.544,0.334l14.677-12.58L327.426,491.426z M330.737,340.572l0.109,0.22
			c0.073-0.072,0.184-0.146,0.331-0.22H330.737z M332.944,344.322c0.368,0.663,0.625,1.104,0.773,1.325
			c3.898-2.427,6.804-4.155,8.718-5.187c-3.606,0-6.696,0.038-9.271,0.111c0.072,0.147,0.11,0.33,0.11,0.551L332.944,344.322z
			 M353.8,460.526c-0.514-0.736-0.992-1.361-1.434-1.877c-0.22-0.221-0.589-0.552-1.104-0.992l-17.436,13.573
			c11.478-7.578,18.099-11.146,19.865-10.704C353.542,460.452,353.581,460.452,353.8,460.526z M334.711,347.303
			c0.366,0.662,0.844,1.474,1.434,2.428l5.518-6.62C339.676,344.213,337.358,345.612,334.711,347.303z M349.167,488.887
			c1.325-1.104,2.317-2.097,2.979-2.978c0.663-0.886,1.287-1.916,1.876-3.092l-17.326,9.933c1.104,0,2.318-0.076,3.642-0.224
			c2.207-0.219,3.899-0.329,5.076-0.329c0.146-0.147,0.294-0.295,0.442-0.441c0.366-0.221,1.25-0.516,2.648-0.884
			C348.284,490.063,348.504,489.4,349.167,488.887z M345.193,348.738c-3.089,1.84-5.518,3.199-7.283,4.082
			c-0.149-0.293,0.146,0.221,0.882,1.546C340.41,352.82,342.544,350.945,345.193,348.738z M346.187,340.461
			c-0.074,0.149-0.147,0.296-0.22,0.441l-8.056,9.711c3.898-2.132,9.562-5.555,16.994-10.263
			C351.52,340.351,348.615,340.389,346.187,340.461z M356.559,473.879c0.147-1.839,0.147-3.532,0-5.077
			c-2.722,2.28-8.717,6.914-17.986,13.905l16.552-9.49c0.515-0.294,0.955-0.221,1.324,0.221
			C356.521,473.584,356.559,473.73,356.559,473.879z M356.009,477.741c0.22-1.03,0.402-2.171,0.55-3.421
			c-0.073,0.22-0.184,0.368-0.33,0.442l-16.443,14.014l14.898-8.606c0.146-0.075,0.331-0.11,0.551-0.11
			C355.528,479.248,355.787,478.475,356.009,477.741z M340.558,357.455c0.809,1.323,1.508,2.539,2.097,3.643
			c0.22-1.838,3.42-5.297,9.601-10.374L340.558,357.455z M357.884,340.351c-0.074,0.296-0.184,0.517-0.331,0.662
			c-6.916,5.593-12.507,10.301-16.773,14.126l24.498-14.126c0.589-0.293,1.029-0.183,1.325,0.331
			c0.367,0.516,0.293,0.957-0.221,1.324c-12.729,8.976-19.938,14.936-21.63,17.877c2.871-0.733,12.582-6.547,29.133-17.435
			c1.987-1.398,3.2-2.208,3.643-2.429l0.11-0.109c0.293-0.146,0.552-0.184,0.771-0.111c0.441,0.073,0.699,0.331,0.772,0.773
			c0.074,0.44-0.073,0.771-0.441,0.992c-15.889,10.373-27.036,18.282-33.437,23.726c0.073,0,0.221,0.222,0.441,0.662
			c7.43-3.897,19.826-11.327,37.189-22.292c-0.368-0.881-0.663-1.543-0.882-1.986c-0.148-0.292-0.294-0.697-0.441-1.213v-0.221
			c-0.075-0.221-0.11-0.441-0.11-0.662c-2.649,0-7.357,0.038-14.125,0.11H357.884z M343.318,362.311
			c0.513,0.811,0.882,1.474,1.103,1.987c1.03-0.956,2.244-1.987,3.642-3.091c-2.134,1.033-3.605,1.473-4.414,1.324
			C343.649,362.531,343.538,362.459,343.318,362.311z M360.642,360.436c-6.106,3.605-10.778,6.217-14.014,7.834
			c0.293,0.517,0.698,1.215,1.213,2.098C350.122,368.308,354.389,364.998,360.642,360.436z M349.498,373.458
			c0.293,0.441,0.698,1.139,1.213,2.096l27.147-19.863c-1.766,1.104-4.414,2.797-7.946,5.075
			C359.024,367.903,352.218,372.133,349.498,373.458z M385.143,348.959c-0.517-1.03-0.958-1.949-1.325-2.76
			c-16.996,11.993-28.362,20.306-34.1,24.939c2.941-1.544,9.342-5.552,19.201-12.027
			C377.084,353.814,382.493,350.431,385.143,348.959z M386.024,356.903c-4.121,0.813-15.56,7.653-34.319,20.526
			c0.588,1.253,1.175,2.428,1.766,3.531c1.029-1.616,6.803-5.959,17.325-13.022C379.55,361.98,384.626,358.302,386.024,356.903z
			 M355.015,383.831c0.22,0.441,0.551,1.104,0.994,1.986c1.029-1.251,2.831-2.943,5.407-5.077c-3.164,1.84-5.372,2.723-6.622,2.649
			C354.646,383.095,354.72,383.242,355.015,383.831z M390.66,360.766c-1.694-3.677-3.091-6.694-4.194-9.049l-11.256,8.277
			c6.473-3.678,10.483-5.369,12.029-5.077c0.441,0.149,0.772,0.405,0.993,0.773c0.735,1.325-4.745,5.923-16.442,13.794
			c-9.565,6.549-15.009,10.558-16.333,12.028c2.133-0.514,9.049-4.782,20.747-12.8c8.386-5.74,13.022-8.498,13.904-8.277
			C390.254,360.436,390.438,360.545,390.66,360.766z M357.111,388.243c1.913,3.753,4.084,8.351,6.511,13.796
			c10.373-7.504,18.943-13.831,25.713-18.982l-26.265,15.121c-0.515,0.367-0.957,0.257-1.323-0.333
			c-0.517-0.883,3.31-4.485,11.476-10.814c-6.694,4.489-10.888,6.55-12.581,6.18c-0.44-0.146-0.81-0.404-1.103-0.772
			c-0.296-0.514-0.184-0.955,0.331-1.324c12.653-8.754,21.996-15.632,28.03-20.637L357.111,388.243z M390.991,361.428
			c0,0.296-0.148,0.553-0.441,0.773c-13.979,9.418-24.059,16.737-30.237,21.959l32.223-18.648c0.074,0,0.183-0.037,0.331-0.11
			C392.129,363.856,391.505,362.531,390.991,361.428z M364.505,403.914c0.587,1.178,1.104,2.246,1.545,3.2
			c16.699-12.14,28.25-20.598,34.65-25.382l-0.22-0.33c-7.358,3.459-11.037,5.187-11.037,5.187S381.13,392.367,364.505,403.914z
			 M395.405,370.698c-0.369-0.808-0.921-1.985-1.655-3.532c-1.621,2.871-10.963,10.302-28.03,22.293
			c2.942-1.692,8.092-5.113,15.449-10.265c8.314-5.736,12.947-8.496,13.905-8.275c0.22,0.073,0.442,0.22,0.663,0.441
			L395.405,370.698z M402.91,386.589c-0.59-1.324-1.068-2.354-1.437-3.091c-2.061,1.619-7.688,5.778-16.884,12.471
			c-4.562,3.31-10.446,7.614-17.655,12.911c7.135-3.31,18.98-10.702,35.533-22.181C402.614,386.627,402.76,386.589,402.91,386.589z
			 M367.596,410.646c0.808,1.692,1.065,2.244,0.771,1.654c4.193-3.091,8.093-5.921,11.698-8.497
			C374.694,407.042,370.537,409.322,367.596,410.646z M369.25,414.396c0.441,0.959,0.918,2.025,1.435,3.202l29.465-22.07
			C393.601,398.913,383.301,405.202,369.25,414.396z M397.832,375.886c-0.074-0.222-0.259-0.662-0.552-1.324
			c-0.296-0.589-0.515-1.065-0.663-1.437l-0.662-1.213c0.074,0.369-0.038,0.662-0.331,0.883
			c-10.447,7.577-18.908,13.942-25.381,19.091L397.832,375.886z M371.899,420.137c0.44,1.03,0.81,1.839,1.103,2.428
			c2.134-1.545,6.069-4.194,11.809-7.944c13.755-9.05,21.371-14.494,22.842-16.334c-2.648,0.589-12.029,6.181-28.14,16.772
			C376.054,417.416,373.517,419.106,371.899,420.137z M374.878,424.771c-0.147,0.075-0.294,0.149-0.44,0.223
			c-0.15,0.073-0.259,0.147-0.331,0.22c0.293,0.59,0.844,1.767,1.654,3.53c17.067-12.138,28.728-20.673,34.982-25.602l-0.11-0.11
			C404.895,405.901,392.977,413.148,374.878,424.771z M378.3,434.592c0.072-0.219,0.183-0.403,0.331-0.551l14.014-11.035
			c-7.652,4.783-12.875,7.614-15.67,8.498C377.784,433.488,378.225,434.52,378.3,434.592z M378.74,435.696l0.11,0.11l1.437,3.31
			c0.071,0.15,0.146,0.297,0.219,0.443c8.607-6.106,15.009-11.146,19.202-15.12c-12.139,8.02-18.981,11.848-20.527,11.478
			C379.035,435.845,378.888,435.771,378.74,435.696z M408.205,410.534c0.589-1.396,1.251-2.903,1.987-4.523
			c-5.076,4.047-15.118,11.405-30.127,22.07C386.538,424.699,395.917,418.85,408.205,410.534z M381.941,442.76
			c0.661-0.662,1.36-1.324,2.097-1.986c-1.179,0.515-2.061,0.81-2.649,0.882C381.61,442.098,381.793,442.466,381.941,442.76z
			 M394.631,438.124c0.885-1.766,1.876-3.713,2.98-5.849c-6.475,4.929-11.44,9.049-14.897,12.36l0.11,0.221
			c6.105-3.604,9.159-5.407,9.159-5.407S392.866,439.007,394.631,438.124z M392.977,441.215c-2.281,1.323-5.407,3.163-9.381,5.517
			c0.662,1.399,1.215,2.575,1.656,3.532c2.795-2.941,5.148-5.59,7.063-7.946c0.072-0.146,0.183-0.331,0.331-0.552
			C392.792,441.545,392.903,441.362,392.977,441.215z M403.681,419.916c0.883-1.767,1.693-3.456,2.429-5.076l-20.527,16.222
			c4.855-2.795,10.594-6.474,17.215-11.035C403.091,419.88,403.387,419.845,403.681,419.916z M386.136,408.438
			c11.623-7.503,18.759-11.512,21.407-12.028c-0.37-0.882-0.81-1.912-1.325-3.09c-0.074,0.147-0.183,0.26-0.331,0.332
			L386.136,408.438z M386.576,452.801c-0.44,0.662-0.184,0.183,0.772-1.434l-1.213,0.662
			C386.282,452.395,386.429,452.653,386.576,452.801z M403.57,388.243c-0.221,0.15-0.368,0.259-0.441,0.333
			c-1.472,1.472-6.253,5.187-14.347,11.146c9.491-5.665,15.009-8.314,16.554-7.946c-0.074,0-0.038,0.038,0.11,0.11
			c-0.662-1.471-1.252-2.758-1.766-3.862l-0.221,0.22H403.57z M398.936,429.626c0.662-1.396,1.214-2.537,1.655-3.42
			c-2.356,2.281-5.776,5.149-10.262,8.606c2.499-1.616,5.002-3.347,7.503-5.187C398.2,429.405,398.566,429.405,398.936,429.626z
			 M399.708,379.748c-0.075-0.147-0.369-0.774-0.883-1.878c-1.324,1.324-4.121,3.605-8.387,6.843
			C394.191,382.506,397.28,380.851,399.708,379.748z M409.089,399.499c-1.253,1.475-4.305,3.9-9.16,7.285
			c4.193-2.428,7.504-4.229,9.932-5.407C409.64,400.862,409.382,400.238,409.089,399.499z"/>
	</g>
</g>
</svg>
