<?xml version="1.0" encoding="utf-8"?>
<!-- Generator: Adobe Illustrator 16.0.0, SVG Export Plug-In . SVG Version: 6.00 Build 0)  -->
<!DOCTYPE svg PUBLIC "-//W3C//DTD SVG 1.1//EN" "http://www.w3.org/Graphics/SVG/1.1/DTD/svg11.dtd">
<svg version="1.1" xmlns="http://www.w3.org/2000/svg" xmlns:xlink="http://www.w3.org/1999/xlink" x="0px" y="0px"
	 width="841.89px" height="595.28px" viewBox="0 0 841.89 595.28" enable-background="new 0 0 841.89 595.28" xml:space="preserve">
<g id="Fond">
	
		<line fill="none" stroke="#DDDDDC" stroke-width="3" stroke-miterlimit="10" x1="392.114" y1="467.334" x2="801.851" y2="467.334"/>
	<path fill="none" stroke="#DDDDDC" stroke-width="3" stroke-miterlimit="10" d="M392.114,467.334"/>
	<line fill="none" stroke="#DDDDDC" stroke-width="3" stroke-miterlimit="10" x1="13.667" y1="467.334" x2="301.443" y2="467.334"/>
</g>
<g id="C">
	<g>
		<g id="XMLID_2_">
			<g>
				<polygon fill="#294772" points="821.368,496.844 799.67,509.446 784.519,464.199 806.217,451.518 				"/>
				<path fill="#294772" d="M806.217,451.518l-21.698,12.682c-164.735-3.839-262.07-72.517-262.07-157.371
					c0-41.885,23.695-79.798,65.371-108.286c-31.226,26.608-50.343,60.285-50.343,96.636
					C537.477,380.192,641.235,447.679,806.217,451.518z"/>
				<polygon fill="#294772" points="803.573,88.059 788.391,133.386 784.672,135.663 766.692,146.65 781.845,101.403 				"/>
				<path fill="#294772" d="M803.573,88.059l-21.729,13.344c-80.37,2.939-149.799,21.842-202.293,51.469
					C633.982,115.62,711.647,91.395,803.573,88.059z"/>
				<path fill="#3A6BB4" d="M587.819,198.542c-41.676,28.488-65.371,66.401-65.371,108.286c0,84.854,97.335,153.532,262.07,157.371
					l15.151,45.247c-200.202-3.839-326.212-92.744-326.212-202.618c0-61.45,39.432-116.361,106.094-153.957
					c52.494-29.626,121.923-48.53,202.293-51.469l-15.152,45.247C692.285,150.012,630.602,169.287,587.819,198.542z"/>
			</g>
			<g>
				<path fill="none" stroke="#000000" stroke-miterlimit="10" d="M788.391,133.386l15.183-45.327
					c-91.926,3.336-169.591,27.561-224.021,64.813"/>
				<path fill="none" stroke="#000000" stroke-miterlimit="10" d="M820.17,496.738c1.137,0.105,0,0,1.198,0.105l-15.151-45.326
					c-164.981-3.839-268.74-71.325-268.74-156.339c0-36.351,19.117-70.028,50.343-96.636"/>
				<path fill="none" stroke="#000000" stroke-miterlimit="10" d="M781.845,101.403c-80.37,2.939-149.799,21.842-202.293,51.469
					c-66.662,37.596-106.094,92.506-106.094,153.957c0,109.874,126.01,198.779,326.212,202.618l-15.151-45.247
					c-164.735-3.839-262.07-72.517-262.07-157.371c0-41.885,23.695-79.798,65.371-108.286
					c42.782-29.256,104.466-48.53,178.873-51.893L781.845,101.403z"/>
				<line fill="none" stroke="#000000" stroke-miterlimit="10" x1="781.845" y1="101.403" x2="803.573" y2="88.059"/>
				<line fill="none" stroke="#000000" stroke-miterlimit="10" x1="784.672" y1="135.663" x2="788.391" y2="133.386"/>
				<line fill="none" stroke="#000000" stroke-miterlimit="10" x1="766.692" y1="146.65" x2="784.672" y2="135.663"/>
				<line fill="none" stroke="#000000" stroke-miterlimit="10" x1="784.519" y1="464.199" x2="806.217" y2="451.518"/>
				<line fill="none" stroke="#000000" stroke-miterlimit="10" x1="799.67" y1="509.446" x2="821.368" y2="496.844"/>
			</g>
		</g>
	</g>
</g>
<g id="G">
	<g>
		<g id="XMLID_3_">
			<g>
				<polygon fill="#528BAC" points="829.607,317.354 830.88,428.489 815.129,436.789 813.836,436.789 813.836,325.653 				"/>
				<polygon fill="#528BAC" points="829.607,317.354 813.836,325.653 813.836,325.617 749.601,325.617 749.58,325.604 
					765.271,317.354 				"/>
				<path fill="#75C3ED" d="M676.176,218.277c-44.386,16.893-73.849,46.773-73.849,80.84c0,52.767,94.567,103.349,173.707,103.349
					l-0.162-13.316l-0.505-42.575h-31.805l6.038-20.957h64.235v0.036v111.136c-138.993-3.174-247.049-69.342-247.049-137.672
					c0-39.278,30.229-74.249,77.422-96.879c34.875-16.734,79.019-26.719,127.06-26.719l-10.986,28.135
					C729.366,203.654,700.51,209.013,676.176,218.277z"/>
				<polygon fill="#528BAC" points="776.034,195.403 760.282,203.654 771.269,175.52 787.039,167.219 				"/>
				<path fill="#528BAC" d="M787.039,167.219l-15.771,8.3c-48.041,0-92.185,9.984-127.06,26.719
					C681.083,180.561,731.466,167.219,787.039,167.219z"/>
				<path fill="#528BAC" d="M775.872,389.149l0.162,13.316c-79.14,0-173.707-50.582-173.707-103.349
					c0-34.066,29.463-63.947,73.849-80.84c-36.813,17.516-60.419,44.686-60.419,75.213
					C615.757,346.367,688.394,389.149,775.872,389.149z"/>
			</g>
			<g>
				<path fill="none" stroke="#000000" stroke-miterlimit="10" d="M775.812,195.403c0.202,0,0,0,0.223,0l11.005-28.184
					c-55.573,0-105.956,13.341-142.83,35.019c-0.282,0.159-0.565,0.317-0.848,0.488"/>
				<path fill="none" stroke="#000000" stroke-miterlimit="10" d="M775.872,389.149c-87.479,0-160.115-42.782-160.115-95.659
					c0-30.527,23.606-57.698,60.419-75.213c1.091-0.513,2.181-1.013,3.292-1.514"/>
				<path fill="none" stroke="#000000" stroke-miterlimit="10" d="M776.034,402.466c-79.14,0-173.707-50.582-173.707-103.349
					c0-34.066,29.463-63.947,73.849-80.84c24.334-9.265,53.19-14.623,84.106-14.623l10.986-28.135
					c-48.041,0-92.185,9.984-127.06,26.719c-47.192,22.63-77.422,57.601-77.422,96.879c0,68.33,108.056,134.498,247.049,137.672
					V325.653v-0.036h-64.235l-6.038,20.957h31.805l0.505,42.575L776.034,402.466"/>
				<line fill="none" stroke="#000000" stroke-miterlimit="10" x1="771.269" y1="175.52" x2="787.039" y2="167.219"/>
				<line fill="none" stroke="#000000" stroke-miterlimit="10" x1="760.282" y1="203.654" x2="776.034" y2="195.403"/>
				<polyline fill="none" stroke="#000000" stroke-miterlimit="10" points="749.499,325.653 749.58,325.604 765.271,317.354 
					829.607,317.354 813.836,325.653 				"/>
				<polyline fill="none" stroke="#000000" stroke-miterlimit="10" points="829.607,317.354 830.88,428.489 815.129,436.789 				"/>
			</g>
		</g>
	</g>
</g>
<g id="my">
	<g>
		<path fill="#DEDDDD" d="M298.774,436.005c6.51,0.229,10.183,0.721,11.016,1.478c0.983,0.758,1.323,1.855,1.022,3.294
			c-0.152,0.606-0.454,1.173-0.908,1.702c-0.682,0.756-1.477,1.137-2.386,1.137c-0.681,0-1.288-0.19-1.816-0.568
			c-0.228-0.226-0.418-0.454-0.568-0.682c-47.094-0.227-71.738-0.227-73.933,0c-1.741,0.529-2.952-0.036-3.634-1.703
			c-0.833-1.969-0.454-3.254,1.136-3.86c0.377-0.229,0.795-0.38,1.249-0.456c0.151-0.074,0.264-0.112,0.34-0.112h0.341
			c2.726,0.53,5.602,0.68,8.631,0.454v-0.568c-0.303-0.149-0.493-0.378-0.567-0.682c-0.076-1.06,0.075-1.703,0.455-1.93l0.113-0.114
			v-0.796l0.114-5.451c0-2.876,0.037-5.224,0.113-7.04c-0.152-0.228-0.152-0.491,0-0.796c0-2.193,0.038-4.238,0.114-6.131h-0.114
			c-0.227-0.53-0.188-1.061,0.114-1.592c0.075-4.012,0.114-7.872,0.114-11.584c-0.531,0.229-0.948,0.114-1.25-0.34
			c-0.38-0.528-0.304-0.984,0.227-1.363l1.022-0.681v-4.884h-0.114c-0.303-0.074-0.531-0.265-0.682-0.568
			c-0.38-0.681-0.113-1.589,0.796-2.724c0-4.392,0-8.442,0-12.152c-0.076-0.303-0.076-0.605,0-0.909c0-1.968-0.04-3.899-0.114-5.792
			c-0.152-0.302-0.152-0.642,0-1.021c-0.076-1.817-0.114-3.483-0.114-4.998c-0.378-0.073-0.644-0.264-0.794-0.567
			c-0.304-0.454-0.076-1.06,0.681-1.816c-0.227-5.754-0.531-10.03-0.908-12.835c-0.228-1.967-0.455-3.52-0.681-4.656
			c-0.835,0.381-1.402,0.53-1.704,0.454c-0.228-0.073-0.418-0.226-0.569-0.454c-0.302-0.527,0.265-1.55,1.704-3.063
			c-0.531-2.651-1.288-4.545-2.271-5.68c-0.38-0.529-1.289-1.061-2.726-1.591l-0.341-0.228c-1.06-0.376-1.855-0.718-2.384-1.021
			c-1.817,0.53-3.407,1.097-4.77,1.702c-3.181,1.591-5.906,3.975-8.178,7.156c-0.757,1.06-1.552,2.878-2.384,5.451v0.227
			c-0.078,0.38-0.154,0.758-0.228,1.136c-0.152-0.075-0.113-0.037,0.114,0.114c0.227-0.076,0.455-0.076,0.682,0
			c0.227,0.076,0.416,0.226,0.567,0.452c0.379,0.607,0.265,1.1-0.341,1.478h-0.112l-0.114,0.114c0.075,0.38,0.037,0.756-0.114,1.134
			c0,0.079-0.039,0.154-0.113,0.229c-0.077,0.228-0.189,0.416-0.34,0.568c0,1.287,0.037,4.695,0.113,10.221
			c0.301-0.228,0.415-0.342,0.34-0.342c0.606-0.377,1.061-0.265,1.363,0.342c0.378,0.53,0.302,0.984-0.226,1.362l-1.477,1.136
			c0,5.3,0,7.875,0,7.722l0.34,37.364c0.075,9.313,0.114,15.181,0.114,17.604v0.114c0,3.86,0,6.55,0,8.063
			c3.861,0,6.321,0.04,7.382,0.113c0.378-0.073,0.794-0.037,1.249,0.114c1.438,0.305,2.232,1.137,2.385,2.498
			c0.075,0.152,0.113,0.267,0.113,0.34c0,0.759-0.266,1.441-0.794,2.045c-0.455,0.53-1.061,0.87-1.817,1.022l-0.227,0.114
			c-0.455,0.073-0.909,0.035-1.363-0.114c-1.743,0-7.799,0-18.17,0l-20.783-0.114c-19.232,0-29.793,0-31.686,0h-0.908
			c-1.288,0.378-2.347,0.038-3.179-1.022c-0.229-0.227-0.38-0.489-0.455-0.794c-0.154,0.38-0.38,0.721-0.682,1.022
			c-0.531,0.53-1.212,0.832-2.044,0.908c-0.227,0.073-0.455,0.114-0.682,0.114c-0.38,0-0.72-0.076-1.022-0.229
			c-14.007-0.301-37.856-0.454-71.547-0.454h-5.905c-0.53,0.228-1.021,0.341-1.476,0.341c-1.817-0.227-2.725-1.249-2.725-3.066
			c0-0.983,0.341-1.816,1.021-2.497c0.682-0.606,1.438-0.911,2.272-0.911h12.833c0-2.192-0.039-5.715-0.113-10.561
			c-0.076-0.227-0.076-0.416,0-0.567c-0.076-8.328-0.227-19.155-0.454-32.48H75.16c-0.531-0.152-0.908-0.416-1.134-0.795
			c-0.38-0.756,0.263-1.892,1.93-3.408c-0.227-12.112-0.417-22.978-0.567-32.593l-0.114-0.114c-0.227-0.376-0.189-0.795,0.114-1.249
			c-0.078-5.603-0.154-9.614-0.229-12.038c-0.075-2.799-0.112-5.072-0.112-6.813c-0.077-0.909-0.114-1.817-0.114-2.726
			c-5.224,0-8.33,0.038-9.313,0.114c-0.681,0-1.249,0.038-1.704,0.111c-0.153,0.079-0.34,0.114-0.567,0.114h-0.228
			c-0.152,0-0.267,0-0.341,0c-1.893,0-2.953-0.908-3.179-2.725c-0.076-0.908,0.188-1.704,0.795-2.386
			c0.528-0.604,1.173-0.908,1.93-0.908c0.075-0.074,0.188-0.113,0.341-0.113h0.34c0.681-0.074,1.437-0.151,2.271-0.228
			c1.287-0.075,4.202-0.114,8.746-0.114h14.99c8.933,0.077,16.012,0.114,21.237,0.114c9.917,0,16.086-0.075,18.511-0.226
			c0.151-0.152,0.301-0.267,0.455-0.343c1.74-0.832,3.066-0.378,3.975,1.365c0.605,1.134,0.568,2.271-0.114,3.404
			c-0.303,0.38-0.682,0.682-1.135,0.91c0.073,1.134,0.151,2.953,0.227,5.45c2.726-3.709,5.413-6.32,8.063-7.835
			c6.207-3.71,15.444-5.413,27.709-5.111c9.541,0.229,18.549,2.235,27.029,6.02c4.39,1.893,8.479,4.81,12.265,8.744
			c0.379-0.149,0.605-0.226,0.681-0.226c0.302,0.076,0.53,0.265,0.682,0.567c0.151,0.303,0.075,0.643-0.227,1.021
			c0.455,0.531,0.908,1.137,1.363,1.817c0.605-1.513,1.287-2.764,2.044-3.748c3.027-4.088,6.511-7.115,10.447-9.084
			c3.937-1.968,10.449-3.333,19.535-4.089c2.044-0.152,4.202-0.227,6.473-0.227c4.391,0,8.819,0.265,13.287,0.794l0.341,0.114
			c5.98,0.681,10.409,1.628,13.287,2.84c1.438,0.605,2.84,1.288,4.203,2.042c0.832-0.227,1.437-0.301,1.816-0.227
			c0.455,0.076,0.756,0.305,0.91,0.683c0.226,0.379,0.226,0.756,0,1.136c2.422,1.516,4.428,3.104,6.018,4.769
			c2.954,3.106,5.413,7.383,7.382,12.834c0.832,2.197,1.438,5.224,1.817,9.084l0.113,0.568c0.379,3.711,0.643,9.92,0.795,18.626
			l0.114,0.112c0.377,0.682,0.34,1.441-0.114,2.273c0.075,4.391,0.151,10.334,0.227,17.829c0-0.075,0.15-0.188,0.455-0.341
			c0.301-0.15,0.568-0.188,0.795-0.114c0.301,0.077,0.492,0.228,0.567,0.455c0.377,0.681-0.227,1.629-1.817,2.84v4.997
			c0.075,0.152,0.15,0.226,0.228,0.226c0.227,0.454,0.151,0.949-0.228,1.477v1.022c0,8.784,0.038,17.035,0.114,24.758
			c0.682-0.378,1.173-0.53,1.477-0.454l-0.228,0.908l0.455,0.908c-0.153,0.076-0.227,0.114-0.227,0.114
			S299.606,435.478,298.774,436.005z M78.908,330.501v0.227l0.341-0.227H78.908z M79.249,334.591
			c0.15-0.832,0.301-1.477,0.455-1.931l-0.795,0.454c0,0.68,0.036,1.325,0.114,1.929v0.796c0.073-0.302,0.113-0.454,0.113-0.454
			S79.173,335.121,79.249,334.591z M79.135,343.221c1.665-1.664,4.315-4.202,7.949-7.607c-4.315,2.876-6.852,4.239-7.609,4.086
			c-0.076-0.073-0.189-0.149-0.34-0.226c0,1.137,0,1.969,0,2.499V343.221z M79.362,351.057c8.705-6.662,15.672-12.151,20.896-16.466
			l-21.01,12.49L79.362,351.057z M80.385,358.212c17.185-11.28,28.732-19.685,34.637-25.212l-35.66,21.123
			c0.074,4.241,0.151,8.064,0.227,11.471l33.843-24.758c-3.634,2.121-8.291,4.922-13.969,8.404
			c-10.751,6.436-16.656,9.92-17.716,10.448c-0.076,0.076-0.152,0.152-0.227,0.228c-0.38,0.151-0.644,0.189-0.795,0.112
			c-0.454-0.073-0.72-0.34-0.794-0.794c0-0.454,0-0.683,0-0.683S80.081,358.438,80.385,358.212z M79.589,368.093
			c0-0.076,0.037,1.401,0.114,4.429c12.492-9.086,23.318-16.96,32.48-23.621L79.589,368.093z M79.704,375.133
			c0,1.516,0.037,2.767,0.113,3.748c1.438-2.346,5.186-5.829,11.243-10.448L79.704,375.133z M79.816,381.948c0,0.68,0,1.702,0,3.065
			c1.589-1.135,3.634-2.535,6.133-4.202c-2.652,1.137-4.469,1.591-5.452,1.363C80.271,382.175,80.044,382.101,79.816,381.948z
			 M79.93,388.876c9.008-4.315,25.211-14.499,48.607-30.551v-3.405c-3.181,2.65-11.964,8.556-26.348,17.716
			c-11.433,7.344-18.852,12.265-22.259,14.764V388.876z M97.76,381.039c-7.949,4.922-13.894,8.217-17.83,9.881
			c0,0.378,0,0.87,0,1.476l0.114,1.363C86.176,389.368,92.082,385.127,97.76,381.039z M92.65,392.282
			c18.7-12.34,29.828-20.253,33.388-23.735c-1.97,1.212-6.36,4.165-13.174,8.858c-18.778,12.947-29.716,19.497-32.82,19.646v3.862
			C80.799,400.158,85.002,397.278,92.65,392.282z M80.157,405.342c0,1.136,0,2.009,0,2.612l8.971-5.337
			c22.638-13.703,35.887-23.054,39.75-28.051v-0.114l-47.699,28.279c-0.38,0.152-0.721,0.112-1.022-0.114V405.342z M80.271,412.27
			c0,0.91,0,1.552,0,1.933c2.726-2.802,10.863-8.935,24.417-18.398l-14.877,8.857c-3.257,1.969-6.473,3.861-9.653,5.678
			L80.271,412.27z M80.271,417.606c0.074,4.47,0.114,5.794,0.114,3.975l35.887-25.777c-1.136,0.756-3.029,2.044-5.679,3.86
			C92.65,411.855,82.542,417.835,80.271,417.606z M80.498,434.303c3.104-2.649,7.76-6.134,13.969-10.448
			c-6.966,4.695-11.092,6.928-12.379,6.699c-0.378-0.149-0.682-0.378-0.908-0.68c-0.303-0.53-0.19-0.984,0.341-1.362l43.496-32.368
			c-4.922,2.347-15.785,9.198-32.594,20.555c-6.285,4.165-10.296,6.816-12.037,7.95L80.498,434.303z M87.88,330.501
			c-2.121,0-4.128,0-6.02,0c0.075,0.381-0.151,1.894-0.681,4.542c-0.152,1.062-0.266,1.782-0.341,2.159
			c1.211-0.681,3.862-2.386,7.95-5.11c0.832-0.604,1.59-1.096,2.271-1.477L87.88,330.501z M127.628,346.741
			c-30.361,18.551-45.881,29.718-46.563,33.503c3.559,0.834,19.344-8.859,47.358-29.074c0-0.149-0.04-1.324-0.113-3.52
			c0-0.303,0.037-0.569,0.113-0.795c0.301-0.606,0.567-1.137,0.795-1.591c-0.607-0.378-0.908-0.946-0.908-1.702l-0.114-4.203
			l-0.341,0.229c-1.363,1.211-9.388,7.192-24.077,17.942c-1.969,1.439-4.467,3.257-7.495,5.452l30.323-17.945
			c0.604-0.377,1.059-0.263,1.363,0.342C128.347,345.985,128.233,346.439,127.628,346.741z M89.243,437.936l26.12-20.101
			L81.52,437.936H89.243z M109.571,397.96c10.069-6.888,16.542-11.167,19.419-12.833c0-0.528,0-1.664,0-3.407
			c-26.801,17.944-42.513,29.149-47.13,33.616C84.888,414.202,94.126,408.408,109.571,397.96z M95.489,330.615
			c-0.455,0.454-1.476,1.403-3.067,2.839c-4.542,4.165-7.875,7.307-9.994,9.427l20.557-12.266H95.489z M128.65,365.365
			c0-1.664,0-3.063,0-4.2c-2.574,1.969-9.956,7.307-22.145,16.013c-7.723,5.604-15.749,11.356-24.077,17.263
			c4.089-1.818,13.856-8.063,29.301-18.74c10.373-7.114,15.974-10.561,16.809-10.335H128.65z M129.219,402.731
			c-21.201,13.932-36.456,24.491-45.769,31.685l45.313-26.803c0.151-0.072,0.301-0.113,0.455-0.113V402.731z M107.754,330.615
			c-2.12,2.347-7.989,7.268-17.603,14.764l24.758-14.764H107.754z M93.332,438.05c1.967,0,4.503,0,7.608,0l21.578-17.377
			L93.332,438.05z M129.104,395.576l-33.389,24.871c1.363-0.908,3.558-2.422,6.587-4.543c15.292-10.825,24.227-16.316,26.802-16.469
			V395.576z M128.082,337.316c0-1.969-0.039-3.522-0.112-4.656l-31.914,23.394l31.345-18.625
			C127.628,337.278,127.855,337.241,128.082,337.316z M103.212,417.721c5.829-4.011,12.566-8.554,20.214-13.627
			c-3.709,2.196-10.374,6.662-19.988,13.401C103.438,417.495,103.362,417.57,103.212,417.721z M129.219,414.428v-4.656
			l-26.007,19.988L129.219,414.428z M119.11,330.615c-0.833,2.271-5.187,6.359-13.06,12.266
			c11.281-6.815,18.246-10.941,20.897-12.38C125.13,330.577,122.518,330.615,119.11,330.615z M106.731,438.05
			c1.591,0,3.634,0.04,6.133,0.114c5.148-4.998,9.388-9.16,12.72-12.493c-1.516,0.907-3.975,2.539-7.382,4.883
			C112.825,434.188,109.003,436.688,106.731,438.05z M128.764,372.067v-3.749c-1.816,2.575-8.594,7.877-20.328,15.9L128.764,372.067
			z M129.219,417.949l-20.556,16.467c1.891-1.212,4.729-3.066,8.517-5.564c6.737-4.619,10.75-7.156,12.039-7.61V417.949z
			 M129.104,393.076c0-1.816,0-3.14,0-3.975l-16.921,12.153c9.387-5.907,14.99-8.633,16.807-8.179H129.104z M117.407,436.573
			c3.18-1.892,7.079-4.467,11.697-7.722l0.114-3.975C127.476,426.692,123.54,430.593,117.407,436.573z M127.855,432.145
			c-3.709,2.574-6.776,4.581-9.198,6.02h6.358C125.244,437.104,126.188,435.097,127.855,432.145z M128.878,377.405
			c-1.439,1.516-3.447,3.292-6.02,5.337l6.02-3.634V377.405z M128.65,437.936c0.075-0.755,0.152-1.931,0.228-3.52
			c-0.531,1.062-0.985,1.97-1.363,2.726c0.227,0.076,0.416,0.227,0.567,0.454c0.075,0.152,0.114,0.38,0.114,0.681h0.454V437.936z
			 M152.841,436.346c1.589,0,2.876,0,3.86,0c0-0.3,0.038-0.868,0.114-1.703c-0.153-0.074-0.19-0.074-0.114,0
			c-0.227-0.074-0.417-0.265-0.567-0.568c-0.305-0.454-0.04-1.172,0.795-2.158c0.227-7.493,0.454-16.199,0.681-26.119h-0.113
			c-0.304-0.075-0.531-0.228-0.682-0.455c-0.304-0.528-0.19-0.982,0.341-1.362l0.567-0.34c0.227-10.146,0.341-19.231,0.341-27.257
			c-0.076-0.151-0.076-0.188,0-0.113c-0.227-0.379-0.227-0.756,0-1.137c0.075-7.796,0.038-14.119-0.114-18.965
			c-0.302,0.227-0.34,0.266-0.113,0.114c-0.304,0.151-0.567,0.189-0.795,0.112c-0.303-0.074-0.493-0.227-0.567-0.453
			c-0.304-0.529,0.151-1.438,1.363-2.727c-0.076-2.649-0.189-4.656-0.34-6.02c-0.455-3.633-1.062-6.133-1.818-7.496
			c-1.439-2.497-3.333-4.352-5.678-5.564c-0.454-0.227-1.135-0.376-2.044-0.452c-0.454,0.226-0.758,0.302-0.908,0.226l0.113-0.34
			h-0.226c-0.455,0-0.949-0.038-1.477-0.114c-0.908,0.305-1.704,0.645-2.385,1.022c-2.802,1.742-6.171,5.832-10.107,12.265
			l-0.228,0.454c-0.152,0.305-0.303,0.568-0.454,0.797c0.074,2.422,0.15,5.035,0.227,7.836c0.151-0.076,0.265-0.076,0.341,0
			c0.302,0,0.528,0.151,0.682,0.454c0.227,0.378,0.113,0.794-0.341,1.248v0.113c0.377-0.227,0.15-0.073-0.682,0.454
			c0.151,6.664,0.265,13.176,0.341,19.533l0.227,0.114c0.228,0.455,0.151,0.872-0.227,1.249c0.075,0.836,0.114,2.31,0.114,4.431
			c0.377-0.076,0.643-0.076,0.795,0c0.378,0.075,0.681,0.265,0.908,0.566c0.302,0.531,0.188,0.985-0.341,1.363l-1.362,0.908
			c0.151,9.995,0.227,18.588,0.227,25.78l0.568-0.341c0.605-0.377,1.058-0.302,1.363,0.228c0.377,0.529,0.301,1.021-0.227,1.476
			l-1.704,1.362c0,10.375-0.114,17.528-0.341,21.466c5.525,0.076,8.972,0.152,10.335,0.227c0.528,0,0.945,0.076,1.249,0.228
			c0.983,0.226,1.628,0.721,1.931,1.477c0.075-0.074,0.114-0.15,0.114-0.229c0.528-1.134,1.476-1.702,2.838-1.702
			c0.228,0,0.455,0,0.682,0L152.841,436.346z M150.911,329.594c-0.835,0.226-1.137,0.302-0.91,0.226l0.455,0.114l0.227-0.114
			c0.151-0.074,0.229-0.113,0.229-0.113S150.911,329.669,150.911,329.594z M154.204,330.047c-0.304,0.152-0.834,0.454-1.59,0.908
			c0.528,0.304,1.059,0.683,1.59,1.137V330.047z M156.134,333.683l9.198-5.451c-3.179,0-6.208,0.188-9.084,0.565L156.134,333.683z
			 M157.383,335.271c0.682,0.833,1.249,1.629,1.704,2.386c1.136-1.363,2.99-3.597,5.564-6.702L157.383,335.271z M161.471,346.629
			c0.075,0.833,0.151,1.855,0.227,3.065c1.893-1.664,4.354-3.709,7.382-6.132c-3.257,2.044-5.377,2.952-6.36,2.725
			c-0.38-0.149-0.644-0.378-0.794-0.681c-0.305-0.529,0.869-2.044,3.52-4.544c3.861-3.708,6.661-6.472,8.405-8.291
			c-0.607,0.381-0.721,0.455-0.341,0.229c-6.664,4.391-10.979,7.08-12.947,8.063C160.79,342.125,161.091,343.979,161.471,346.629z
			 M160.904,432.485c-0.077,2.12-0.153,3.634-0.228,4.542c0.832-0.527,2.46-1.59,4.884-3.179
			c21.804-14.157,35.356-23.546,40.656-28.165L160.904,432.485z M161.017,428.055c3.935-3.33,10.222-7.986,18.853-13.967
			c-10.752,7.268-16.695,10.789-17.831,10.561c-0.38-0.15-0.643-0.378-0.794-0.682l-0.114-0.112
			c-0.076,1.892-0.114,2.838-0.114,2.838S161.017,427.146,161.017,428.055z M175.895,329.025c-2.197-0.378-4.315-0.605-6.359-0.682
			c-3.561,4.165-6.36,7.535-8.405,10.107c2.119-1.286,5.905-3.67,11.356-7.154C174.304,330.085,175.44,329.328,175.895,329.025z
			 M161.131,422.944c0.605-1.284,8.176-6.888,22.714-16.807c6.587-4.543,11.318-7.837,14.195-9.88l-36.795,21.805
			C161.245,419.577,161.206,421.205,161.131,422.944z M161.358,415.45c0.909-0.683,3.521-2.423,7.836-5.223
			c18.245-12.04,30.019-20.253,35.319-24.645c-26.651,16.806-40.771,25.022-42.361,24.645c-0.304-0.076-0.531-0.267-0.682-0.57
			C161.471,411.627,161.433,413.559,161.358,415.45z M161.813,408.294c21.047-15.291,35.887-26.119,44.518-32.479
			c-4.997,2.65-14.991,8.897-29.982,18.739c-7.572,4.923-12.454,8.063-14.65,9.426c-0.076,1.742-0.113,3.257-0.113,4.543
			C161.585,408.449,161.659,408.373,161.813,408.294z M178.733,388.534c-9.539,5.679-15.104,8.329-16.694,7.95l-0.227-0.114
			c-0.076,1.516-0.114,2.953-0.114,4.316L178.733,388.534z M195.428,369.455l-33.501,19.875l-0.114,4.654L195.428,369.455z
			 M162.38,359.46c-0.607-1.058,4.921-6.32,16.581-15.784c-2.423,1.439-8.102,4.845-17.034,10.222
			c0.073,3.104,0.112,7.002,0.112,11.696l13.515-10.563c-6.36,3.862-10.374,5.606-12.038,5.226
			C162.985,360.182,162.606,359.916,162.38,359.46z M203.151,349.126c-8.404,4.392-22.108,12.947-41.112,25.666v4.883
			L203.151,349.126z M192.476,349.809c-8.708,5.149-18.475,10.979-29.301,17.49c-0.38,0.226-0.721,0.188-1.022-0.114l-0.114,4.997
			C173.851,363.55,183.995,356.093,192.476,349.809z M162.039,384.219c1.363-1.21,3.104-2.648,5.224-4.315
			c-2.802,1.515-4.542,2.233-5.224,2.157V384.219z M210.192,353.783c-25.593,15.825-41.604,26.841-48.04,33.048l48.04-28.506
			V353.783z M210.532,396.144c-22.486,14.612-38.272,25.479-47.357,32.594l46.222-27.371c0.227-0.149,0.492-0.187,0.795-0.111
			c0.073,0.076,0.188,0.152,0.34,0.226V396.144z M170.33,438.391c2.195-1.891,9.2-7.229,21.01-16.013
			c-12.492,7.798-21.463,13.136-26.916,16.013H170.33z M198.608,336.861c-1.666-1.211-3.406-2.194-5.224-2.953
			c-1.666-0.756-3.598-1.477-5.792-2.159c-9.464,7.27-17.111,13.288-22.941,18.06c15.292-9.087,23.736-14.044,25.326-14.878
			c-0.303,0.303-0.152,0.19,0.455-0.34v0.111c0.455-0.226,0.756-0.301,0.908-0.226c0.379,0.076,0.606,0.34,0.681,0.795
			c0.075,0.379-0.039,0.721-0.34,1.022c-14.235,11.206-23.092,18.512-26.574,21.918c3.861-1.059,14.119-7.532,30.775-19.421
			C197.396,337.733,198.305,337.088,198.608,336.861z M166.583,342.767c2.498-1.437,6.927-4.354,13.288-8.744
			c2.195-1.438,3.785-2.499,4.769-3.181c-1.816-0.528-3.747-0.982-5.791-1.362c-0.304,1.362-4.315,5.718-12.039,13.062l-0.113,0.112
			L166.583,342.767z M166.923,392.851c8.251-4.089,22.713-13.097,43.382-27.029c-0.076-1.06-0.113-2.612-0.113-4.656
			L166.923,392.851z M210.305,375.247c-1.97,1.59-9.502,7.155-22.6,16.693c-4.542,3.333-9.124,6.663-13.742,9.994
			c9.463-5.601,21.048-12.757,34.752-21.463c0.227-0.152,0.491-0.188,0.795-0.114c0.227,0.076,0.414,0.229,0.567,0.454
			c1.135,1.97-5.491,7.875-19.874,17.717l18.17-10.789c0.227-0.075,0.492-0.075,0.796,0c0.227,0.076,0.415,0.228,0.567,0.454
			c0.756,1.289-7.496,7.836-24.758,19.648c-7.723,5.224-13.022,8.896-15.899,11.016c2.499-1.664,6.888-4.617,13.173-8.858
			c15.747-10.676,25.135-16.428,28.166-17.263L210.305,375.247z M195.202,360.368c7.796-4.918,12.869-8.1,15.218-9.538v-0.113
			l-0.227-0.342c-0.304-0.529-0.418-1.059-0.341-1.589l0.113-0.114c-0.607-0.151-1.062-0.454-1.363-0.908v-0.113l-36.795,27.37
			c4.617-2.801,6.927-4.203,6.927-4.203S184.222,367.337,195.202,360.368z M183.731,438.391c-0.152-1.059,6.284-6.889,19.306-17.489
			c2.119-1.741,3.595-2.915,4.43-3.521c-5.604,2.044-16.771,9.048-33.503,21.01H183.731z M200.198,338.11l-0.113,0.227
			l-24.19,18.967c14.46-8.632,23.659-14.083,27.597-16.354c-1.061-1.061-1.591-1.591-1.591-1.591S201.333,338.944,200.198,338.11z
			 M177.598,428.397c9.691-5.905,20.669-12.757,32.935-20.556v-4.202C208.79,406.744,197.813,414.996,177.598,428.397z
			 M210.305,368.433l-24.871,17.716c13.703-8.78,21.993-13.588,24.871-14.422V368.433z M194.52,438.505l9.426-10.222
			c-9.767,5.832-15.484,9.199-17.149,10.107L194.52,438.505z M188.387,355.372c9.387-5.829,15.596-9.199,18.625-10.107
			c-0.681-0.981-1.249-1.778-1.703-2.384c-0.758,0.529-2.311,1.666-4.657,3.406C197.32,348.786,193.232,351.814,188.387,355.372z
			 M210.646,417.153c-0.531,0.531-2.651,2.31-6.36,5.339c-6.285,5.148-10.827,8.896-13.628,11.242
			c4.845-2.801,10.977-6.436,18.399-10.902c0.455-0.302,0.869-0.188,1.249,0.341c0.378,0.453,0.341,0.872-0.113,1.25l-8.973,9.766
			c4.391-2.8,7.571-4.73,9.541-5.791C210.76,425.671,210.721,421.923,210.646,417.153z M210.646,410.567
			c-4.619,3.406-8.858,6.55-12.72,9.426c6.36-3.71,10.334-5.375,11.925-4.997c0.302,0,0.568,0.114,0.795,0.34V410.567z
			 M204.855,438.505l5.905-7.837c-2.575,1.517-6.701,4.127-12.379,7.837H204.855z M210.76,433.96l-2.726,3.636l2.726-1.591V433.96z
			 M210.873,438.505c0.303,0.984,0.303,0.908,0-0.229l-0.226,0.229H210.873z M233.133,330.274h0.113l0.229,0.113
			c-0.078,0-0.04,0.039,0.113,0.113c0.074-0.15,0.188-0.264,0.34-0.34C232.564,330.388,232.298,330.427,233.133,330.274z
			 M235.745,331.409c0.908,0.53,1.665,1.137,2.271,1.817c-0.076-1.208-0.154-2.195-0.227-2.952L235.745,331.409z M242.105,329.253
			l-2.385,0.227c0.074,0.908,0.15,2.27,0.226,4.089c3.254-2.195,5.639-3.709,7.155-4.543
			C245.208,329.025,243.542,329.102,242.105,329.253z M239.72,336.18c0.301,0.607,0.567,1.325,0.794,2.157
			c2.726-2.876,4.731-5.07,6.019-6.588C244.563,332.962,242.292,334.439,239.72,336.18z M241.083,340.61
			c4.466-2.575,10.447-6.248,17.943-11.017c-3.03-0.303-5.982-0.492-8.859-0.568C250.622,329.934,247.593,333.794,241.083,340.61z
			 M253.462,335.499c-5.075,3.181-9.049,5.604-11.926,7.268c0.228,1.212,0.455,2.574,0.681,4.089c0-0.151,0.075-0.265,0.229-0.341
			L253.462,335.499z M242.446,348.786c0.15,1.136,0.301,2.611,0.453,4.429l24.417-20.329c-5.905,3.257-13.781,8.331-23.622,15.218
			c-0.531,0.305-0.985,0.229-1.363-0.226v-0.114v0.454c0.075,0.227,0.114,0.341,0.114,0.341S242.446,348.635,242.446,348.786z
			 M243.013,355.372c0.075,1.136,0.15,2.348,0.227,3.634c2.119-1.589,7.078-5.185,14.878-10.788
			c9.69-7.115,16.011-11.811,18.965-14.083l-0.228-0.112c-4.014,2.12-11.698,7.004-23.055,14.649
			C247.139,353.215,243.542,355.45,243.013,355.372z M243.24,437.596h1.022c0.379-2.347,6.928-7.797,19.647-16.354
			c-10.676,6.359-17.566,10.412-20.669,12.152V437.596z M243.354,362.413c0.075,1.363,0.114,2.727,0.114,4.089l25.552-19.307
			L243.354,362.413z M243.354,423.854c25.589-15.748,41.451-26.688,47.584-32.822l-47.471,28.052L243.354,423.854z M243.354,430.442
			l17.262-12.38c-8.405,5.072-14.159,8.138-17.262,9.198V430.442z M243.468,416.698c26.649-16.126,43.571-27.597,50.764-34.41
			c0,1.362,0,0.984,0-1.136c-8.025,4.164-24.91,14.386-50.651,30.664L243.468,416.698z M243.58,371.953
			c2.953-2.345,8.82-6.359,17.604-12.037c-8.33,5.073-14.196,8.443-17.604,10.107V371.953z M243.58,407.613
			c3.255-2.422,10.714-7.229,22.374-14.423c14.764-9.01,23.887-14.99,27.37-17.943c-1.667,1.061-4.884,3.18-9.653,6.361
			c-24.152,15.823-37.327,23.471-39.522,22.939c-0.152-0.074-0.303-0.15-0.454-0.229L243.58,407.613z M287.986,348.786
			c-4.998,0.908-19.762,10.032-44.292,27.369c0,1.516,0.037,3.18,0.114,4.997c0.754-0.681,3.861-2.913,9.312-6.7
			C273.941,360.067,285.562,351.512,287.986,348.786z M243.694,386.036c3.254-2.347,10.145-6.663,20.669-12.946
			c15.519-9.389,24.795-15.484,27.824-18.284l-47.699,28.163c-0.227,0.154-0.493,0.19-0.794,0.114V386.036z M243.694,394.667
			c23.849-17.11,39.521-28.353,47.018-33.729c-8.558,4.015-24.23,13.781-47.018,29.301V394.667z M293.777,366.276
			c-5.224,0.68-21.918,10.978-50.083,30.89c0,1.894,0,3.444,0,4.657c1.288-1.591,8.137-6.21,20.556-13.856
			c17.49-10.75,27.37-17.526,29.641-20.328C293.891,367.337,293.852,366.883,293.777,366.276z M294.005,372.407
			c0-0.756,0-1.438,0-2.044c-3.257,3.181-12.834,9.653-28.733,19.421c-10.675,6.512-17.035,10.639-19.08,12.379
			c4.088-1.664,16.241-9.122,36.456-22.374C288.704,375.854,292.489,373.393,294.005,372.407z M255.846,437.596l0.114-0.113
			c17.11-11.508,29.261-20.216,36.455-26.121l-44.177,26.234H255.846z M294.458,403.866c-1.666,1.061-4.883,3.144-9.653,6.247
			c-19.837,12.719-31.952,21.009-36.34,24.869l45.994-27.141v-2.5V403.866z M286.623,341.633c-0.53-0.606-0.986-1.175-1.363-1.705
			c-0.455-0.378-0.947-0.832-1.477-1.362l-34.411,26.006C258.382,359.425,270.798,351.776,286.623,341.633z M267.09,330.728
			c-1.363-0.301-3.143-0.566-5.338-0.794c-0.077,0.228-0.153,0.38-0.228,0.454l-9.994,9.88
			C258.191,335.803,263.378,332.622,267.09,330.728z M268.907,409.886c-4.847,3.256-10.221,6.739-16.126,10.447
			c10.598-6.056,24.454-14.915,41.565-26.574c0-1.591,0-2.915,0-3.975C292.755,392.962,284.274,399.664,268.907,409.886z
			 M281.967,337.202c-0.908-0.757-1.894-1.438-2.953-2.045c-2.499,2.045-9.086,6.928-19.761,14.651
			c-2.726,1.968-4.77,3.445-6.132,4.429L281.967,337.202z M274.585,332.886c-0.456-0.226-0.758-0.377-0.909-0.454
			c-0.304-0.074-0.947-0.302-1.93-0.683l-14.991,12.493C265.083,338.642,271.025,334.856,274.585,332.886z M258.118,422.378
			c10.221-6.057,22.332-13.249,36.34-21.577l-0.113-4.543L258.118,422.378z M267.09,437.596c1.21-1.06,4.125-3.293,8.744-6.701
			c9.994-7.342,15.901-12.037,17.717-14.082c-4.695,1.971-16.052,8.897-34.071,20.783H267.09z M292.188,352.42
			c-0.152-0.377-0.303-0.72-0.453-1.022c-0.305-0.983-0.721-2.005-1.251-3.065c-0.302,1.816-8.442,8.328-24.416,19.533
			L292.188,352.42z M294.458,418.743c-2.044,2.196-7.835,6.813-17.375,13.854c-2.197,1.591-3.824,2.766-4.884,3.521
			c3.104-1.893,7.911-4.957,14.424-9.199c4.617-3.027,7.116-4.504,7.495-4.428c0.15,0.076,0.264,0.152,0.34,0.226V418.743z
			 M287.758,428.623c-6.359,4.165-11.054,7.156-14.082,8.973c2.498,0,5.034,0,7.609,0c-0.227-1.06,1.968-4.088,6.586-9.084h-0.114
			V428.623z M279.241,387.399c6.888-4.089,11.885-6.89,14.99-8.405l-0.113-1.816C291.467,379.373,286.509,382.781,279.241,387.399z
			 M289.916,347.081c-0.53-1.058-1.061-2.044-1.589-2.952c-1.516,1.364-4.315,3.407-8.405,6.133c4.844-2.649,7.95-3.822,9.313-3.521
			C289.461,346.818,289.689,346.932,289.916,347.081z M293.55,361.391c-0.984,0.683-3.143,2.235-6.473,4.657
			c-2.726,1.969-4.505,3.257-5.338,3.861c5.752-3.255,9.766-5.071,12.037-5.451C293.702,363.321,293.625,362.302,293.55,361.391z
			 M294.458,424.309c-0.227,0.38-0.947,1.212-2.157,2.498c-4.014,4.241-6.701,7.194-8.063,8.858
			c2.499-1.362,5.943-3.559,10.335-6.588L294.458,424.309z M291.847,433.394c-3.028,2.044-5.377,3.484-7.042,4.316
			c1.288,0,2.5,0,3.634,0c0.53-0.683,1.211-1.55,2.044-2.613C291.013,434.416,291.467,433.849,291.847,433.394z M294.231,384.9
			c-2.196,1.97-5.262,4.355-9.198,7.154l7.949-4.655c0.227-0.152,0.492-0.188,0.794-0.114c0.229,0.076,0.416,0.229,0.569,0.454
			L294.231,384.9z M294.458,412.157c-1.666,1.515-3.824,3.255-6.472,5.224c3.103-1.664,5.26-2.613,6.472-2.839V412.157z
			 M292.983,356.622c-0.834,0.758-1.857,1.63-3.067,2.612c1.288-0.606,2.385-1.061,3.293-1.362
			C293.134,357.417,293.058,357.001,292.983,356.622z M291.847,437.824c0.909-0.53,1.818-1.099,2.726-1.705v-3.066
			c-0.531,0.834-1.363,1.93-2.499,3.293c-0.379,0.532-0.758,1.022-1.135,1.479h0.455
			C291.62,437.824,291.771,437.824,291.847,437.824z"/>
		<path fill="#DEDDDD" d="M458.693,327.095c2.498,0.303,3.748,1.362,3.748,3.18s-1.137,2.84-3.408,3.066h-0.34
			c-0.152,0.076-0.304,0.113-0.454,0.113h-0.229c-0.53,0-1.062-0.151-1.59-0.454c-2.726-0.073-6.586-0.149-11.583-0.229
			c-0.305,0.759-0.872,1.251-1.704,1.478c-1.363,2.953-4.731,10.901-10.108,23.849l-1.248,2.953
			c-9.465,22.867-16.089,38.235-19.874,46.109c-9.995,21.05-18.21,36.756-24.646,47.129c-1.516,2.499-2.611,4.316-3.292,5.452
			c-7.421,12.189-13.401,19.988-17.943,23.396c-2.879,2.271-8.064,4.353-15.56,6.245l-0.568,0.226
			c-1.211,0.305-1.968,0.495-2.27,0.568c-0.456,0.457-0.948,0.756-1.478,0.908c-0.378,0.152-0.757,0.231-1.134,0.231
			c-1.062,0-2.727,0.111-4.997,0.337c-2.726,0.23-4.771,0.343-6.134,0.343c-2.044,0-3.786-0.19-5.223-0.568
			c-5.224-1.21-9.427-3.485-12.606-6.813c-2.953-2.953-4.96-6.512-6.02-10.677l-0.114-0.341c-0.152-0.529-0.227-1.021-0.227-1.476
			c-0.985-5.756-0.226-10.865,2.271-15.332c2.5-4.391,7.003-8.176,13.515-11.356c2.499-1.288,5.716-2.083,9.653-2.385
			c0.605-0.076,1.211-0.114,1.817-0.114c3.254,0,6.094,0.454,8.517,1.362c4.089,1.438,7.23,3.369,9.426,5.794
			c2.119,2.347,3.672,5.337,4.656,8.972l0.114,0.113c0.151,0.227,0.188,0.453,0.113,0.681c0.075,0.454,0.114,0.644,0.114,0.568
			c0.832,4.011,0.718,8.365-0.341,13.061c-0.681,2.799-1.856,5.485-3.52,8.065c2.799-0.987,4.92-2.045,6.36-3.183
			c4.012-2.951,9.5-10.184,16.467-21.691c0.681-1.212,1.778-3.028,3.294-5.452l0.567-1.022c0.379-0.606,0.681-1.099,0.909-1.475
			c-0.53-0.908-1.516-2.953-2.953-6.133c-1.062,0.681-1.439,0.908-1.136,0.681c-0.226,0.151-0.492,0.189-0.795,0.113
			c-0.227-0.075-0.416-0.226-0.567-0.454c-0.38-0.681,0.038-1.777,1.25-3.293c-0.683-1.438-1.477-3.218-2.385-5.337l-1.477-3.408
			c-1.97-4.316-3.521-7.76-4.656-10.333c-0.836,0.529-1.403,0.757-1.705,0.68c-0.226-0.073-0.416-0.227-0.567-0.454
			c-0.38-0.681,0.037-1.551,1.25-2.611c-0.38-0.756-0.796-1.703-1.25-2.84c-1.289,0.683-2.121,0.985-2.5,0.908
			c-0.302-0.073-0.53-0.264-0.681-0.568c-0.303-0.453-0.227-0.867,0.228-1.248l1.931-1.362c-0.606-1.287-1.137-2.498-1.589-3.635
			c-0.985,0.683-1.554,1.062-1.705,1.137c-0.606,0.378-1.098,0.302-1.477-0.229c-0.303-0.527-0.19-0.981,0.341-1.362
			c-0.076,0,0.567-0.492,1.931-1.477c-0.227-0.528-0.645-1.477-1.25-2.839c-0.38,0.076-0.681,0.076-0.908,0
			c-0.531-0.075-0.908-0.302-1.136-0.682c-0.303-0.528-0.19-0.983,0.341-1.362c0.454-0.302,0.642-0.415,0.568-0.342
			c-5.075-11.053-8.974-19.267-11.698-24.645c-0.91-1.816-1.97-3.861-3.18-6.132c-1.135,0.834-1.591,1.175-1.364,1.022
			c-0.53,0.381-0.984,0.302-1.362-0.227c-0.379-0.529-0.303-1.021,0.228-1.478l1.59-1.136c-1.439-2.573-2.916-5.298-4.43-8.177
			c-1.062,0.455-1.78,0.645-2.158,0.568c-0.303-0.151-0.53-0.34-0.681-0.568c-0.379-0.681,0-1.664,1.135-2.953
			c-1.438-2.572-2.915-5.185-4.428-7.835l-0.91,0.567c-0.607,0.304-1.06,0.152-1.363-0.454c-0.303-0.455,0.038-1.249,1.022-2.386
			c-0.681-1.135-1.438-2.386-2.272-3.748v-0.112c-0.984-1.664-1.894-3.218-2.726-4.656c-0.152-0.075-0.189-0.075-0.113,0
			c-0.303-0.229-0.454-0.53-0.454-0.909c-1.363-2.346-2.386-4.088-3.067-5.225c-0.076-0.149-0.152-0.264-0.227-0.34l-0.114-0.113
			c-2.573,0.076-4.618,0.152-6.131,0.228c-1.213,0.076-2.461,0.267-3.749,0.566h-0.341c-0.606,0.228-1.174,0.267-1.703,0.114
			c-0.227,0-0.381-0.038-0.454-0.114c-1.516-0.528-2.235-1.551-2.159-3.065c0.075-1.665,0.946-2.612,2.612-2.838
			c0.15,0,0.301,0,0.455,0h0.567c1.363-0.302,2.84-0.492,4.429-0.568c3.254-0.302,16.429-0.492,39.521-0.568l8.177-0.114
			c14.989-0.073,24.492-0.113,28.505-0.113c0.757-0.528,1.514-0.719,2.271-0.566c0.075,0,0.302,0.038,0.681,0.111h0.341
			c2.953,0.305,4.352,1.403,4.201,3.294c0,1.516-0.983,2.462-2.952,2.84c-1.667,0.226-6.209,0.34-13.628,0.34
			c0.529,1.213,1.323,2.993,2.385,5.339c0.529-0.228,0.946-0.302,1.249-0.228c0.379,0.076,0.642,0.267,0.795,0.568
			c0.302,0.53,0.227,0.984-0.227,1.362l-0.681,0.454c1.664,3.634,4.844,10.372,9.54,20.215l1.136,2.499
			c1.362,2.802,2.498,5.188,3.405,7.155c0.757-0.151,1.324-0.189,1.705-0.114c0.454,0.076,0.795,0.304,1.022,0.681
			c0.301,0.456-0.152,1.174-1.363,2.158c3.708,7.875,6.245,13.325,7.609,16.354c2.499-5.754,6.434-15.065,11.812-27.939l1.135-2.61
			c5.68-13.703,9.351-22.373,11.017-26.009c-8.329,0-14.081,0.155-17.262,0.455c-0.303,0.456-0.721,0.796-1.25,1.022
			c-0.303,0.076-0.681,0.113-1.135,0.113c-1.289,0-2.197-0.527-2.726-1.591c-0.758-1.284-0.795-2.497-0.114-3.632
			c1.135-1.591,8.593-2.386,22.374-2.386c6.133,0,13.06,0.113,20.782,0.341H458.693z M330.248,456.902
			c-8.253,4.845-13.894,8.063-16.921,9.652c-0.076,1.211-0.04,2.46,0.113,3.749L330.248,456.902z M313.894,473.028
			c0.833,3.254,2.385,6.093,4.657,8.521l30.209-23.284c-3.484,1.818-10.033,5.943-19.647,12.379
			c-7.648,5.149-11.851,7.646-12.606,7.498c-0.303-0.078-0.531-0.271-0.682-0.569c-0.302-0.455-0.226-0.872,0.229-1.25
			l22.827-17.717L313.894,473.028z M315.483,458.833c-0.607,0.983-1.099,2.194-1.476,3.635c4.089-3.562,7.495-6.588,10.22-9.087
			c-1.816,1.06-2.916,1.515-3.292,1.364c-0.303,0-0.531-0.153-0.682-0.456c-0.152-0.226-0.189-0.454-0.114-0.681
			C317.943,455.426,316.393,457.166,315.483,458.833z M335.359,447.021c-2.044,0.15-3.748,0.416-5.111,0.796
			c0.227,0.073,0.416,0.227,0.568,0.452c0.529,0.984-3.788,5.49-12.947,13.516c6.359-3.711,14.309-8.404,23.85-14.082
			c0.528-0.304,0.983-0.228,1.364,0.227c0.3,0.53,0.226,0.983-0.229,1.362l-20.896,16.695l27.029-15.559
			c-1.516-0.984-3.142-1.779-4.883-2.385c-1.97-0.683-4.354-1.022-7.155-1.022H335.359z M327.295,448.952
			c-1.97,0.983-3.938,2.194-5.905,3.634c1.286-0.681,3.746-2.119,7.382-4.316C328.09,448.571,327.597,448.8,327.295,448.952z
			 M324.116,485.519C324.188,485.445,324.188,485.445,324.116,485.519c5.525-4.161,10.862-8.249,16.012-12.263
			c-8.934,5.754-15.18,9.313-18.738,10.675C322.222,484.534,323.13,485.068,324.116,485.519z M355.8,460.535
			c-0.378-1.515-0.872-2.914-1.475-4.201c-0.076,0.151-0.19,0.265-0.341,0.341l-32.481,25.211c5.526-2.5,16.809-9.538,33.844-21.123
			C355.498,460.687,355.647,460.611,355.8,460.535z M326.272,486.543c1.137,0.452,2.232,0.795,3.294,1.021
			c0.454,0.152,0.983,0.265,1.589,0.344l15.104-12.949L326.272,486.543z M329.681,331.297l0.113,0.227
			c0.074-0.074,0.188-0.15,0.34-0.227H329.681z M331.951,335.157c0.378,0.682,0.643,1.137,0.795,1.364
			c4.012-2.499,7.002-4.277,8.972-5.338c-3.711,0-6.891,0.038-9.541,0.113c0.075,0.152,0.114,0.341,0.114,0.566L331.951,335.157z
			 M353.415,454.745c-0.53-0.758-1.021-1.401-1.476-1.931c-0.226-0.229-0.606-0.569-1.135-1.022l-17.945,13.969
			c11.813-7.798,18.626-11.472,20.443-11.016C353.149,454.669,353.188,454.669,353.415,454.745z M333.769,338.225
			c0.378,0.681,0.87,1.516,1.476,2.497l5.679-6.813C338.879,335.043,336.494,336.482,333.769,338.225z M348.646,483.931
			c1.362-1.137,2.385-2.156,3.067-3.064c0.681-0.91,1.323-1.971,1.931-3.181l-17.832,10.222c1.136,0,2.386-0.079,3.748-0.229
			c2.272-0.227,4.013-0.34,5.225-0.34c0.151-0.151,0.303-0.304,0.454-0.456c0.378-0.225,1.287-0.528,2.726-0.906
			C347.738,485.142,347.964,484.461,348.646,483.931z M344.557,339.699c-3.18,1.896-5.678,3.295-7.495,4.203
			c-0.154-0.302,0.151,0.227,0.908,1.591C339.635,343.902,341.832,341.973,344.557,339.699z M345.579,331.184
			c-0.076,0.152-0.152,0.304-0.227,0.454l-8.29,9.995c4.012-2.197,9.841-5.718,17.489-10.563
			C351.067,331.069,348.078,331.107,345.579,331.184z M356.255,468.487c0.151-1.895,0.151-3.635,0-5.226
			c-2.802,2.347-8.972,7.115-18.511,14.311l17.034-9.768c0.53-0.305,0.983-0.229,1.363,0.228
			C356.216,468.183,356.255,468.333,356.255,468.487z M355.687,472.462c0.227-1.063,0.415-2.234,0.568-3.521
			c-0.076,0.227-0.19,0.379-0.341,0.455l-16.921,14.424l15.332-8.861c0.151-0.076,0.341-0.111,0.567-0.111
			C355.193,474.012,355.46,473.216,355.687,472.462z M339.787,348.672c0.832,1.362,1.551,2.612,2.159,3.748
			c0.227-1.892,3.52-5.45,9.879-10.676L339.787,348.672z M357.617,331.069c-0.075,0.304-0.189,0.53-0.34,0.68
			c-7.118,5.756-12.873,10.602-17.262,14.538l25.211-14.538c0.606-0.3,1.059-0.187,1.363,0.343c0.378,0.53,0.302,0.984-0.227,1.362
			c-13.099,9.237-20.518,15.37-22.259,18.398c2.953-0.756,12.947-6.737,29.981-17.944c2.045-1.438,3.294-2.271,3.748-2.499
			l0.114-0.112c0.302-0.151,0.567-0.189,0.794-0.113c0.455,0.075,0.719,0.34,0.795,0.794c0.075,0.454-0.076,0.794-0.454,1.022
			c-16.353,10.676-27.824,18.814-34.41,24.417c0.075,0,0.227,0.227,0.454,0.681c7.646-4.01,20.403-11.658,38.271-22.94
			c-0.378-0.908-0.681-1.589-0.908-2.043c-0.152-0.302-0.302-0.72-0.453-1.251v-0.226c-0.077-0.229-0.114-0.454-0.114-0.683
			c-2.726,0-7.572,0.041-14.537,0.114H357.617z M342.626,353.669c0.529,0.835,0.908,1.516,1.135,2.045
			c1.061-0.984,2.31-2.045,3.748-3.18c-2.197,1.062-3.71,1.516-4.542,1.363C342.968,353.897,342.854,353.821,342.626,353.669z
			 M360.456,351.738c-6.285,3.712-11.091,6.399-14.422,8.064c0.302,0.53,0.719,1.248,1.25,2.157
			C349.629,359.841,354.02,356.434,360.456,351.738z M348.986,365.14c0.302,0.454,0.719,1.175,1.249,2.159l27.938-20.443
			c-1.816,1.137-4.542,2.878-8.177,5.223C358.791,359.425,351.787,363.776,348.986,365.14z M385.669,339.928
			c-0.53-1.061-0.985-2.005-1.363-2.84c-17.489,12.342-29.187,20.897-35.093,25.666c3.028-1.589,9.614-5.715,19.762-12.379
			C377.378,344.925,382.943,341.442,385.669,339.928z M386.577,348.104c-4.241,0.835-16.013,7.876-35.319,21.126
			c0.605,1.287,1.21,2.497,1.817,3.632c1.059-1.664,7.002-6.132,17.831-13.401C379.914,353.329,385.139,349.543,386.577,348.104z
			 M354.666,375.814c0.226,0.455,0.567,1.137,1.021,2.045c1.06-1.286,2.914-3.026,5.566-5.224c-3.257,1.893-5.529,2.802-6.815,2.725
			C354.285,375.059,354.361,375.209,354.666,375.814z M391.348,352.078c-1.743-3.784-3.181-6.887-4.316-9.312l-11.583,8.518
			c6.661-3.784,10.789-5.526,12.379-5.226c0.454,0.155,0.795,0.419,1.022,0.797c0.756,1.362-4.883,6.096-16.922,14.195
			c-9.842,6.74-15.445,10.864-16.808,12.379c2.195-0.527,9.312-4.921,21.351-13.173c8.631-5.907,13.401-8.745,14.31-8.519
			C390.93,351.738,391.119,351.853,391.348,352.078z M356.822,380.357c1.969,3.861,4.204,8.595,6.701,14.196
			c10.676-7.723,19.496-14.234,26.461-19.533l-27.028,15.559c-0.531,0.379-0.985,0.265-1.363-0.341
			c-0.53-0.908,3.408-4.618,11.811-11.13c-6.89,4.619-11.205,6.74-12.947,6.36c-0.453-0.152-0.833-0.416-1.134-0.796
			c-0.304-0.528-0.19-0.983,0.34-1.362c13.022-9.01,22.638-16.088,28.846-21.237L356.822,380.357z M391.689,352.761
			c0,0.305-0.154,0.568-0.456,0.795c-14.386,9.692-24.758,17.226-31.118,22.6l33.162-19.192c0.075,0,0.188-0.037,0.341-0.113
			C392.861,355.26,392.216,353.897,391.689,352.761z M364.431,396.484c0.606,1.211,1.137,2.31,1.592,3.294
			c17.185-12.493,29.072-21.199,35.658-26.121l-0.226-0.342c-7.573,3.562-11.358,5.338-11.358,5.338
			S381.541,384.599,364.431,396.484z M396.23,362.302c-0.38-0.832-0.947-2.045-1.703-3.636
			c-1.667,2.953-11.282,10.602-28.846,22.942c3.028-1.743,8.327-5.263,15.899-10.563c8.555-5.905,13.324-8.743,14.31-8.518
			c0.227,0.076,0.455,0.227,0.682,0.455L396.23,362.302z M403.954,378.653c-0.606-1.361-1.1-2.422-1.478-3.179
			c-2.12,1.665-7.912,5.943-17.375,12.833c-4.695,3.406-10.752,7.836-18.17,13.287c7.342-3.407,19.533-11.016,36.568-22.828
			C403.649,378.693,403.8,378.653,403.954,378.653z M367.612,403.411c0.832,1.742,1.097,2.311,0.794,1.704
			c4.316-3.181,8.328-6.094,12.038-8.745C374.916,399.702,370.639,402.049,367.612,403.411z M369.315,407.271
			c0.454,0.987,0.945,2.086,1.477,3.296l30.322-22.714C394.374,391.336,383.775,397.81,369.315,407.271z M398.728,367.639
			c-0.076-0.229-0.265-0.683-0.567-1.362c-0.304-0.606-0.531-1.099-0.681-1.478l-0.682-1.249c0.075,0.38-0.04,0.682-0.34,0.908
			c-10.752,7.799-19.459,14.35-26.121,19.647L398.728,367.639z M372.041,413.18c0.454,1.061,0.832,1.893,1.135,2.496
			c2.196-1.588,6.247-4.314,12.152-8.176c14.157-9.313,21.993-14.914,23.509-16.808c-2.726,0.605-12.379,6.359-28.96,17.262
			C376.318,410.379,373.706,412.119,372.041,413.18z M375.106,417.949c-0.152,0.076-0.303,0.151-0.453,0.227
			c-0.154,0.076-0.267,0.152-0.341,0.227c0.302,0.606,0.869,1.818,1.703,3.635c17.564-12.492,29.564-21.274,36-26.348l-0.111-0.113
			C405.998,398.528,393.732,405.987,375.106,417.949z M378.627,428.055c0.075-0.226,0.188-0.414,0.341-0.565l14.422-11.356
			c-7.875,4.921-13.25,7.834-16.126,8.744C378.097,426.92,378.551,427.981,378.627,428.055z M379.082,429.191l0.114,0.114
			l1.477,3.406c0.074,0.152,0.151,0.305,0.227,0.454c8.858-6.283,15.446-11.471,19.761-15.56
			c-12.493,8.254-19.534,12.192-21.124,11.813C379.385,429.344,379.232,429.268,379.082,429.191z M409.404,403.297
			c0.605-1.436,1.287-2.988,2.044-4.655c-5.224,4.166-15.559,11.737-31.005,22.714C387.106,417.875,396.758,411.855,409.404,403.297
			z M382.374,436.46c0.683-0.681,1.401-1.363,2.159-2.044c-1.212,0.531-2.121,0.833-2.726,0.908
			C382.035,435.779,382.223,436.16,382.374,436.46z M395.436,431.69c0.909-1.816,1.93-3.822,3.067-6.02
			c-6.663,5.073-11.774,9.312-15.332,12.72l0.114,0.228c6.282-3.709,9.425-5.565,9.425-5.565S393.619,432.598,395.436,431.69z
			 M393.732,434.871c-2.348,1.362-5.565,3.255-9.653,5.677c0.681,1.439,1.25,2.649,1.704,3.636c2.876-3.028,5.298-5.754,7.268-8.179
			c0.075-0.149,0.189-0.34,0.341-0.567C393.542,435.211,393.656,435.023,393.732,434.871z M404.748,412.951
			c0.91-1.816,1.742-3.556,2.499-5.224l-21.123,16.695c4.996-2.877,10.902-6.662,17.716-11.357
			C404.142,412.913,404.444,412.878,404.748,412.951z M386.691,401.141c11.96-7.723,19.307-11.849,22.031-12.379
			c-0.38-0.908-0.833-1.969-1.363-3.179c-0.076,0.151-0.189,0.266-0.34,0.34L386.691,401.141z M387.146,446.795
			c-0.454,0.681-0.19,0.188,0.795-1.478l-1.25,0.683C386.842,446.378,386.993,446.642,387.146,446.795z M404.635,380.357
			c-0.229,0.152-0.379,0.267-0.454,0.34c-1.516,1.518-6.437,5.339-14.765,11.471c9.768-5.829,15.446-8.554,17.035-8.177
			c-0.076,0-0.04,0.039,0.114,0.114c-0.681-1.513-1.288-2.839-1.818-3.975l-0.227,0.227H404.635z M399.865,422.944
			c0.681-1.437,1.249-2.611,1.703-3.52c-2.424,2.347-5.943,5.3-10.562,8.858c2.574-1.664,5.148-3.444,7.722-5.339
			C399.107,422.718,399.485,422.718,399.865,422.944z M400.66,371.613c-0.077-0.15-0.379-0.796-0.909-1.932
			c-1.362,1.363-4.24,3.711-8.631,7.041C394.981,374.452,398.161,372.747,400.66,371.613z M410.313,391.94
			c-1.289,1.517-4.429,4.016-9.426,7.495c4.316-2.498,7.723-4.35,10.22-5.563C410.881,393.343,410.615,392.7,410.313,391.94z"/>
	</g>
</g>
</svg>
