<?xml version="1.0" encoding="utf-8"?>
<!-- Generator: Adobe Illustrator 16.0.0, SVG Export Plug-In . SVG Version: 6.00 Build 0)  -->
<!DOCTYPE svg PUBLIC "-//W3C//DTD SVG 1.1//EN" "http://www.w3.org/Graphics/SVG/1.1/DTD/svg11.dtd">
<svg version="1.1" xmlns="http://www.w3.org/2000/svg" xmlns:xlink="http://www.w3.org/1999/xlink" x="0px" y="0px"
	 width="841.89px" height="595.28px" viewBox="0 0 841.89 595.28" enable-background="new 0 0 841.89 595.28" xml:space="preserve">
<g id="Fond">
	
		<line fill="none" stroke="#DDDDDC" stroke-width="3" stroke-miterlimit="10" x1="334.434" y1="296.904" x2="497.667" y2="296.904"/>
	<path fill="none" stroke="#DDDDDC" stroke-width="3" stroke-miterlimit="10" d="M334.434,296.904"/>
	
		<line fill="none" stroke="#DDDDDC" stroke-width="3" stroke-miterlimit="10" x1="183.667" y1="296.904" x2="298.313" y2="296.904"/>
</g>
<g id="C">
	<g>
		<g id="XMLID_2_">
			<g>
				<polygon fill="#294772" points="505.442,308.66 496.798,313.681 490.762,295.655 499.406,290.603 				"/>
				<path fill="#294772" d="M499.406,290.603l-8.645,5.052c-65.628-1.529-104.405-28.89-104.405-62.694
					c0-16.687,9.44-31.791,26.043-43.14c-12.44,10.6-20.056,24.017-20.056,38.499C392.344,262.188,433.68,289.074,499.406,290.603z"
					/>
				<polygon fill="#294772" points="498.353,145.807 492.305,163.864 490.823,164.771 483.66,169.148 489.696,151.123 				"/>
				<path fill="#294772" d="M498.353,145.807l-8.656,5.316c-32.018,1.171-59.678,8.702-80.59,20.504
					C430.79,156.787,461.731,147.136,498.353,145.807z"/>
				<path fill="#3A6BB4" d="M409.106,171.627c20.913-11.803,48.573-19.333,80.59-20.504l-6.036,18.026
					c-29.643,1.339-54.217,9.018-71.26,20.673c-16.603,11.349-26.043,26.453-26.043,43.14c0,33.805,38.777,61.165,104.405,62.694
					l6.036,18.025c-79.757-1.529-129.958-36.948-129.958-80.72C366.84,208.48,382.549,186.604,409.106,171.627z"/>
			</g>
			<g>
				<path fill="none" stroke="#000000" stroke-miterlimit="10" d="M492.305,163.864l6.048-18.057
					c-36.621,1.329-67.563,10.98-89.247,25.82"/>
				<path fill="none" stroke="#000000" stroke-miterlimit="10" d="M504.965,308.618c0.453,0.042,0,0,0.478,0.042l-6.036-18.057
					c-65.727-1.529-107.062-28.415-107.062-62.283c0-14.482,7.616-27.898,20.056-38.499"/>
				<path fill="none" stroke="#000000" stroke-miterlimit="10" d="M489.696,151.123c-32.018,1.171-59.678,8.702-80.59,20.504
					c-26.557,14.978-42.266,36.853-42.266,61.334c0,43.772,50.201,79.19,129.958,80.72l-6.036-18.025
					c-65.628-1.529-104.405-28.89-104.405-62.694c0-16.687,9.44-31.791,26.043-43.14c17.043-11.655,41.618-19.333,71.26-20.673
					L489.696,151.123z"/>
				<line fill="none" stroke="#000000" stroke-miterlimit="10" x1="489.696" y1="151.123" x2="498.353" y2="145.807"/>
				<line fill="none" stroke="#000000" stroke-miterlimit="10" x1="490.823" y1="164.771" x2="492.305" y2="163.864"/>
				<line fill="none" stroke="#000000" stroke-miterlimit="10" x1="483.66" y1="169.148" x2="490.823" y2="164.771"/>
				<line fill="none" stroke="#000000" stroke-miterlimit="10" x1="490.762" y1="295.655" x2="499.406" y2="290.603"/>
				<line fill="none" stroke="#000000" stroke-miterlimit="10" x1="496.798" y1="313.681" x2="505.442" y2="308.66"/>
			</g>
		</g>
	</g>
</g>
<g id="G">
	<g>
		<g id="XMLID_3_">
			<g>
				<polygon fill="#528BAC" points="508.725,237.154 509.231,281.429 502.956,284.735 502.441,284.735 502.441,240.46 				"/>
				<polygon fill="#528BAC" points="508.725,237.154 502.441,240.46 502.441,240.446 476.851,240.446 476.843,240.441 
					483.094,237.154 				"/>
				<path fill="#75C3ED" d="M447.6,197.684c-17.683,6.73-29.42,18.634-29.42,32.206c0,21.021,37.674,41.172,69.202,41.172
					l-0.064-5.305l-0.201-16.961h-12.671l2.405-8.349h25.591v0.015v44.275c-55.373-1.264-98.421-27.625-98.421-54.846
					c0-15.648,12.043-29.58,30.844-38.595c13.894-6.667,31.479-10.645,50.619-10.645l-4.377,11.208
					C468.79,191.858,457.294,193.993,447.6,197.684z"/>
				<polygon fill="#528BAC" points="487.382,188.571 481.106,191.858 485.483,180.649 491.766,177.343 				"/>
				<path fill="#528BAC" d="M491.766,177.343l-6.282,3.307c-19.14,0-36.726,3.978-50.619,10.645
					C449.555,182.658,469.627,177.343,491.766,177.343z"/>
				<path fill="#528BAC" d="M487.317,265.756l0.064,5.305c-31.528,0-69.202-20.151-69.202-41.172
					c0-13.572,11.737-25.476,29.42-32.206c-14.666,6.978-24.07,17.802-24.07,29.964
					C423.529,248.712,452.467,265.756,487.317,265.756z"/>
			</g>
			<g>
				<path fill="none" stroke="#000000" stroke-miterlimit="10" d="M487.293,188.571c0.08,0,0,0,0.089,0l4.384-11.228
					c-22.139,0-42.211,5.315-56.901,13.951c-0.112,0.063-0.225,0.126-0.338,0.194"/>
				<path fill="none" stroke="#000000" stroke-miterlimit="10" d="M487.317,265.756c-34.851,0-63.788-17.044-63.788-38.109
					c0-12.162,9.404-22.986,24.07-29.964c0.435-0.205,0.869-0.404,1.312-0.603"/>
				<path fill="none" stroke="#000000" stroke-miterlimit="10" d="M487.382,271.062c-31.528,0-69.202-20.151-69.202-41.172
					c0-13.572,11.737-25.476,29.42-32.206c9.694-3.691,21.19-5.826,33.507-5.826l4.377-11.208c-19.14,0-36.726,3.978-50.619,10.645
					c-18.8,9.015-30.844,22.947-30.844,38.595c0,27.221,43.048,53.582,98.421,54.846V240.46v-0.015h-25.591l-2.405,8.349h12.671
					l0.201,16.961L487.382,271.062"/>
				<line fill="none" stroke="#000000" stroke-miterlimit="10" x1="485.483" y1="180.649" x2="491.766" y2="177.343"/>
				<line fill="none" stroke="#000000" stroke-miterlimit="10" x1="481.106" y1="191.858" x2="487.382" y2="188.571"/>
				<polyline fill="none" stroke="#000000" stroke-miterlimit="10" points="476.811,240.46 476.843,240.441 483.094,237.154 
					508.725,237.154 502.441,240.46 				"/>
				<polyline fill="none" stroke="#000000" stroke-miterlimit="10" points="508.725,237.154 509.231,281.429 502.956,284.735 				
					"/>
			</g>
		</g>
	</g>
</g>
<g id="my">
	<g>
		<path fill="#DEDDDD" d="M297.249,284.423c2.594,0.09,4.057,0.287,4.389,0.588c0.392,0.302,0.527,0.739,0.407,1.312
			c-0.061,0.242-0.181,0.468-0.362,0.679c-0.271,0.301-0.588,0.452-0.95,0.452c-0.271,0-0.513-0.076-0.724-0.226
			c-0.091-0.09-0.167-0.181-0.227-0.271c-18.761-0.09-28.579-0.09-29.454,0c-0.694,0.21-1.176-0.015-1.448-0.679
			c-0.332-0.784-0.181-1.296,0.453-1.538c0.15-0.091,0.317-0.151,0.498-0.181c0.06-0.03,0.105-0.045,0.136-0.045h0.136
			c1.086,0.211,2.232,0.271,3.438,0.181v-0.226c-0.121-0.06-0.196-0.151-0.226-0.271c-0.03-0.422,0.03-0.679,0.181-0.769
			l0.045-0.045v-0.317l0.045-2.171c0-1.146,0.015-2.082,0.045-2.805c-0.061-0.09-0.061-0.196,0-0.317
			c0-0.875,0.015-1.689,0.045-2.443h-0.045c-0.09-0.211-0.075-0.422,0.045-0.634c0.03-1.598,0.045-3.136,0.045-4.615
			c-0.211,0.091-0.377,0.045-0.498-0.136c-0.151-0.21-0.121-0.392,0.09-0.543l0.407-0.271v-1.945h-0.045
			c-0.121-0.03-0.211-0.105-0.271-0.226c-0.151-0.271-0.045-0.633,0.317-1.086c0-1.749,0-3.363,0-4.841
			c-0.03-0.121-0.03-0.241,0-0.362c0-0.784-0.016-1.553-0.045-2.307c-0.061-0.12-0.061-0.256,0-0.407
			c-0.03-0.724-0.045-1.387-0.045-1.991c-0.151-0.03-0.256-0.105-0.316-0.227c-0.121-0.181-0.03-0.422,0.271-0.724
			c-0.09-2.292-0.211-3.996-0.362-5.113c-0.091-0.784-0.181-1.402-0.271-1.855c-0.333,0.151-0.559,0.211-0.679,0.181
			c-0.091-0.03-0.167-0.09-0.227-0.181c-0.121-0.21,0.105-0.618,0.679-1.221c-0.211-1.056-0.513-1.81-0.905-2.262
			c-0.151-0.211-0.513-0.422-1.086-0.634l-0.136-0.09c-0.422-0.15-0.739-0.286-0.95-0.407c-0.724,0.211-1.357,0.438-1.9,0.679
			c-1.267,0.633-2.353,1.583-3.258,2.851c-0.302,0.422-0.618,1.146-0.95,2.171v0.091c-0.031,0.151-0.061,0.302-0.091,0.452
			c-0.061-0.03-0.045-0.015,0.045,0.045c0.09-0.03,0.181-0.03,0.271,0c0.09,0.03,0.166,0.09,0.226,0.181
			c0.151,0.242,0.105,0.438-0.136,0.588h-0.045l-0.045,0.045c0.03,0.151,0.015,0.302-0.045,0.452c0,0.031-0.016,0.061-0.045,0.091
			c-0.031,0.09-0.076,0.166-0.136,0.226c0,0.513,0.015,1.871,0.045,4.072c0.12-0.09,0.166-0.136,0.136-0.136
			c0.241-0.15,0.422-0.105,0.543,0.136c0.15,0.211,0.12,0.393-0.09,0.543l-0.588,0.453c0,2.111,0,3.137,0,3.076l0.136,14.885
			c0.03,3.71,0.045,6.048,0.045,7.013v0.045c0,1.538,0,2.609,0,3.212c1.538,0,2.518,0.016,2.941,0.045
			c0.15-0.029,0.316-0.015,0.498,0.045c0.573,0.121,0.889,0.453,0.95,0.996c0.03,0.061,0.045,0.106,0.045,0.136
			c0,0.302-0.106,0.573-0.316,0.814c-0.181,0.211-0.423,0.347-0.724,0.407l-0.09,0.045c-0.181,0.03-0.362,0.015-0.543-0.045
			c-0.694,0-3.107,0-7.239,0l-8.28-0.045c-7.662,0-11.869,0-12.623,0h-0.362c-0.513,0.15-0.935,0.015-1.267-0.407
			c-0.091-0.091-0.151-0.196-0.181-0.317c-0.061,0.151-0.151,0.287-0.271,0.407c-0.211,0.211-0.483,0.332-0.814,0.362
			c-0.09,0.03-0.181,0.045-0.271,0.045c-0.151,0-0.287-0.03-0.407-0.09c-5.581-0.12-15.082-0.181-28.503-0.181h-2.353
			c-0.211,0.09-0.407,0.136-0.588,0.136c-0.724-0.09-1.085-0.498-1.085-1.222c0-0.392,0.136-0.724,0.407-0.995
			c0.271-0.241,0.573-0.362,0.905-0.362h5.112c0-0.874-0.016-2.277-0.045-4.208c-0.03-0.09-0.03-0.166,0-0.226
			c-0.03-3.318-0.09-7.631-0.181-12.94h-0.317c-0.211-0.06-0.362-0.165-0.452-0.316c-0.151-0.301,0.105-0.753,0.769-1.357
			c-0.09-4.826-0.166-9.154-0.226-12.985l-0.045-0.045c-0.09-0.15-0.076-0.316,0.045-0.498c-0.031-2.232-0.061-3.83-0.091-4.796
			c-0.03-1.115-0.045-2.021-0.045-2.714c-0.031-0.362-0.045-0.724-0.045-1.086c-2.081,0-3.318,0.016-3.71,0.045
			c-0.271,0-0.498,0.015-0.679,0.045c-0.061,0.031-0.136,0.045-0.226,0.045h-0.091c-0.061,0-0.106,0-0.136,0
			c-0.754,0-1.176-0.362-1.267-1.086c-0.03-0.362,0.075-0.679,0.317-0.95c0.21-0.241,0.467-0.362,0.769-0.362
			c0.03-0.03,0.075-0.045,0.136-0.045h0.136c0.271-0.029,0.572-0.06,0.905-0.09c0.513-0.03,1.674-0.045,3.484-0.045h5.972
			c3.559,0.031,6.379,0.045,8.46,0.045c3.951,0,6.409-0.03,7.375-0.09c0.06-0.06,0.12-0.105,0.181-0.136
			c0.693-0.332,1.222-0.151,1.583,0.543c0.241,0.452,0.226,0.905-0.045,1.357c-0.121,0.151-0.271,0.271-0.452,0.362
			c0.029,0.452,0.06,1.176,0.09,2.171c1.086-1.478,2.156-2.518,3.212-3.122c2.473-1.478,6.153-2.156,11.039-2.036
			c3.801,0.091,7.39,0.89,10.768,2.398c1.749,0.754,3.378,1.916,4.886,3.484c0.151-0.06,0.241-0.09,0.271-0.09
			c0.12,0.03,0.211,0.106,0.271,0.226c0.06,0.121,0.03,0.256-0.09,0.407c0.181,0.211,0.362,0.452,0.543,0.724
			c0.241-0.603,0.513-1.101,0.814-1.493c1.206-1.629,2.594-2.835,4.162-3.62c1.568-0.784,4.163-1.327,7.782-1.629
			c0.814-0.06,1.674-0.09,2.579-0.09c1.749,0,3.514,0.106,5.293,0.316l0.136,0.045c2.382,0.271,4.147,0.649,5.293,1.131
			c0.573,0.242,1.131,0.513,1.674,0.814c0.332-0.09,0.572-0.12,0.724-0.09c0.181,0.03,0.301,0.121,0.362,0.271
			c0.09,0.151,0.09,0.302,0,0.453c0.965,0.604,1.764,1.237,2.397,1.9c1.177,1.237,2.156,2.941,2.941,5.113
			c0.332,0.875,0.573,2.081,0.724,3.619l0.045,0.227c0.151,1.478,0.256,3.952,0.317,7.42l0.045,0.045
			c0.15,0.271,0.136,0.574-0.045,0.905c0.03,1.75,0.06,4.117,0.09,7.103c0-0.03,0.06-0.075,0.181-0.136
			c0.12-0.06,0.226-0.075,0.317-0.045c0.12,0.031,0.196,0.091,0.226,0.181c0.15,0.271-0.09,0.649-0.724,1.131v1.991
			c0.03,0.061,0.06,0.09,0.091,0.09c0.09,0.181,0.06,0.377-0.091,0.588v0.407c0,3.5,0.015,6.787,0.045,9.863
			c0.271-0.15,0.467-0.211,0.588-0.181l-0.091,0.362l0.181,0.362c-0.061,0.03-0.09,0.045-0.09,0.045
			S297.581,284.212,297.249,284.423z M209.658,242.392v0.09l0.136-0.09H209.658z M209.793,244.021
			c0.06-0.332,0.12-0.588,0.181-0.769l-0.317,0.181c0,0.271,0.015,0.528,0.045,0.769v0.317c0.029-0.12,0.045-0.181,0.045-0.181
			S209.763,244.232,209.793,244.021z M209.748,247.459c0.663-0.663,1.719-1.674,3.167-3.031c-1.719,1.146-2.73,1.689-3.031,1.628
			c-0.03-0.029-0.076-0.06-0.136-0.09c0,0.453,0,0.785,0,0.996V247.459z M209.839,250.581c3.468-2.654,6.243-4.841,8.325-6.56
			l-8.37,4.977L209.839,250.581z M210.246,253.431c6.846-4.494,11.446-7.842,13.799-10.044l-14.206,8.415
			c0.029,1.689,0.06,3.212,0.09,4.57l13.482-9.863c-1.448,0.845-3.303,1.961-5.565,3.348c-4.283,2.564-6.636,3.952-7.058,4.162
			c-0.03,0.031-0.061,0.061-0.09,0.091c-0.151,0.061-0.256,0.076-0.317,0.045c-0.181-0.029-0.287-0.136-0.316-0.316
			c0-0.181,0-0.271,0-0.271S210.125,253.521,210.246,253.431z M209.929,257.367c0-0.03,0.015,0.559,0.045,1.765
			c4.977-3.62,9.29-6.756,12.939-9.411L209.929,257.367z M209.975,260.172c0,0.604,0.015,1.102,0.045,1.493
			c0.573-0.935,2.066-2.322,4.479-4.163L209.975,260.172z M210.02,262.887c0,0.271,0,0.678,0,1.221
			c0.633-0.452,1.448-1.01,2.443-1.674c-1.056,0.453-1.78,0.633-2.172,0.543C210.201,262.978,210.11,262.948,210.02,262.887z
			 M210.065,265.647c3.589-1.719,10.044-5.776,19.364-12.171v-1.357c-1.267,1.056-4.766,3.409-10.497,7.058
			c-4.555,2.926-7.51,4.886-8.868,5.881V265.647z M217.168,262.525c-3.167,1.961-5.535,3.273-7.103,3.937c0,0.151,0,0.347,0,0.588
			l0.045,0.543C212.553,265.843,214.906,264.154,217.168,262.525z M215.132,267.004c7.45-4.916,11.883-8.068,13.301-9.456
			c-0.785,0.483-2.534,1.659-5.248,3.529c-7.481,5.158-11.839,7.767-13.075,7.827v1.539
			C210.411,270.142,212.085,268.995,215.132,267.004z M210.155,272.207c0,0.453,0,0.8,0,1.041l3.574-2.126
			c9.019-5.458,14.297-9.184,15.835-11.175v-0.045l-19.002,11.266c-0.151,0.061-0.287,0.045-0.407-0.045V272.207z M210.201,274.967
			c0,0.362,0,0.619,0,0.77c1.086-1.116,4.328-3.559,9.727-7.33l-5.927,3.529c-1.297,0.785-2.579,1.539-3.846,2.262L210.201,274.967z
			 M210.201,277.093c0.03,1.78,0.045,2.308,0.045,1.583l14.297-10.27c-0.453,0.302-1.207,0.814-2.262,1.538
			C215.132,274.802,211.105,277.184,210.201,277.093z M210.291,283.744c1.236-1.055,3.091-2.443,5.565-4.162
			c-2.775,1.87-4.419,2.76-4.932,2.669c-0.151-0.06-0.271-0.15-0.362-0.271c-0.121-0.211-0.076-0.392,0.136-0.543l17.328-12.895
			c-1.961,0.935-6.289,3.665-12.985,8.189c-2.504,1.659-4.102,2.715-4.795,3.167L210.291,283.744z M213.232,242.392
			c-0.845,0-1.645,0-2.398,0c0.03,0.151-0.061,0.754-0.271,1.81c-0.061,0.423-0.106,0.709-0.136,0.86
			c0.482-0.271,1.539-0.95,3.167-2.036c0.332-0.241,0.633-0.437,0.905-0.588L213.232,242.392z M229.067,248.861
			c-12.096,7.391-18.279,11.839-18.55,13.347c1.417,0.332,7.707-3.529,18.867-11.583c0-0.06-0.016-0.527-0.045-1.402
			c0-0.121,0.015-0.227,0.045-0.317c0.12-0.241,0.226-0.453,0.317-0.633c-0.242-0.151-0.362-0.377-0.362-0.679l-0.045-1.674
			l-0.136,0.091c-0.543,0.483-3.74,2.866-9.592,7.148c-0.785,0.573-1.78,1.297-2.986,2.172l12.08-7.149
			c0.241-0.15,0.422-0.105,0.543,0.136C229.354,248.561,229.308,248.741,229.067,248.861z M213.775,285.192l10.406-8.008
			l-13.482,8.008H213.775z M221.874,269.266c4.011-2.744,6.59-4.449,7.736-5.112c0-0.21,0-0.663,0-1.357
			c-10.677,7.148-16.937,11.613-18.776,13.392C212.04,275.736,215.72,273.429,221.874,269.266z M216.263,242.437
			c-0.181,0.181-0.588,0.559-1.222,1.131c-1.81,1.659-3.137,2.911-3.981,3.755l8.189-4.886H216.263z M229.474,256.281
			c0-0.663,0-1.221,0-1.674c-1.025,0.785-3.966,2.911-8.822,6.379c-3.077,2.232-6.274,4.524-9.592,6.877
			c1.629-0.724,5.52-3.212,11.673-7.465c4.132-2.834,6.364-4.208,6.696-4.117H229.474z M229.701,271.167
			c-8.446,5.55-14.523,9.758-18.233,12.623l18.052-10.678c0.06-0.029,0.12-0.045,0.181-0.045V271.167z M221.149,242.437
			c-0.845,0.935-3.183,2.896-7.013,5.881l9.863-5.881H221.149z M215.404,285.237c0.784,0,1.794,0,3.031,0l8.596-6.922
			L215.404,285.237z M229.655,268.316l-13.302,9.908c0.543-0.362,1.417-0.965,2.625-1.81c6.092-4.313,9.651-6.5,10.677-6.561
			V268.316z M229.248,245.106c0-0.784-0.016-1.403-0.045-1.855l-12.714,9.32l12.487-7.42
			C229.067,245.091,229.158,245.077,229.248,245.106z M219.34,277.139c2.322-1.598,5.006-3.408,8.053-5.429
			c-1.478,0.875-4.133,2.654-7.963,5.339C219.43,277.048,219.4,277.079,219.34,277.139z M229.701,275.827v-1.855l-10.361,7.963
			L229.701,275.827z M225.674,242.437c-0.332,0.905-2.066,2.534-5.203,4.886c4.494-2.715,7.269-4.358,8.325-4.932
			C228.072,242.422,227.031,242.437,225.674,242.437z M220.742,285.237c0.634,0,1.448,0.016,2.443,0.045
			c2.051-1.991,3.74-3.649,5.067-4.977c-0.604,0.362-1.583,1.011-2.941,1.945C223.17,283.699,221.647,284.694,220.742,285.237z
			 M229.52,258.951v-1.493c-0.724,1.026-3.424,3.138-8.099,6.334L229.52,258.951z M229.701,277.229l-8.189,6.561
			c0.753-0.482,1.884-1.222,3.393-2.217c2.684-1.84,4.283-2.851,4.796-3.032V277.229z M229.655,267.321c0-0.724,0-1.251,0-1.583
			l-6.741,4.841c3.74-2.353,5.972-3.439,6.696-3.258H229.655z M224.995,284.649c1.267-0.753,2.82-1.779,4.66-3.076l0.045-1.583
			C229.006,280.713,227.438,282.267,224.995,284.649z M229.158,282.885c-1.478,1.025-2.7,1.825-3.665,2.398h2.533
			C228.117,284.86,228.494,284.061,229.158,282.885z M229.565,261.077c-0.573,0.604-1.373,1.312-2.398,2.126l2.398-1.448V261.077z
			 M229.474,285.192c0.03-0.301,0.061-0.769,0.091-1.402c-0.211,0.423-0.393,0.785-0.543,1.086c0.09,0.03,0.166,0.09,0.226,0.181
			c0.03,0.061,0.045,0.151,0.045,0.271h0.181V285.192z M239.111,284.559c0.633,0,1.146,0,1.538,0c0-0.12,0.015-0.346,0.045-0.679
			c-0.061-0.03-0.076-0.03-0.045,0c-0.09-0.03-0.166-0.105-0.226-0.226c-0.121-0.181-0.016-0.467,0.317-0.86
			c0.09-2.986,0.181-6.454,0.271-10.406h-0.045c-0.121-0.03-0.211-0.09-0.271-0.181c-0.121-0.21-0.076-0.392,0.136-0.543
			l0.226-0.136c0.09-4.042,0.136-7.661,0.136-10.858c-0.03-0.06-0.03-0.075,0-0.045c-0.09-0.151-0.09-0.301,0-0.453
			c0.03-3.106,0.015-5.625-0.045-7.556c-0.121,0.09-0.136,0.106-0.045,0.045c-0.121,0.061-0.226,0.076-0.317,0.045
			c-0.121-0.03-0.196-0.09-0.226-0.181c-0.121-0.211,0.06-0.573,0.543-1.086c-0.03-1.056-0.076-1.855-0.136-2.398
			c-0.181-1.448-0.423-2.443-0.724-2.986c-0.573-0.995-1.328-1.734-2.262-2.217c-0.181-0.09-0.452-0.15-0.814-0.181
			c-0.181,0.09-0.302,0.121-0.362,0.09l0.045-0.136h-0.09c-0.181,0-0.378-0.015-0.588-0.045c-0.362,0.121-0.679,0.257-0.95,0.407
			c-1.116,0.694-2.458,2.323-4.026,4.886l-0.091,0.181c-0.061,0.121-0.121,0.226-0.181,0.317c0.029,0.965,0.06,2.006,0.09,3.122
			c0.06-0.03,0.105-0.03,0.136,0c0.12,0,0.21,0.061,0.271,0.181c0.09,0.151,0.045,0.316-0.136,0.498v0.045
			c0.15-0.091,0.06-0.03-0.271,0.181c0.06,2.655,0.105,5.249,0.136,7.782l0.09,0.045c0.091,0.181,0.06,0.347-0.09,0.498
			c0.03,0.333,0.045,0.92,0.045,1.765c0.15-0.03,0.256-0.03,0.316,0c0.151,0.03,0.271,0.106,0.362,0.226
			c0.121,0.211,0.075,0.393-0.136,0.543l-0.542,0.362c0.06,3.981,0.09,7.405,0.09,10.27l0.226-0.136
			c0.241-0.15,0.422-0.12,0.543,0.09c0.15,0.211,0.12,0.407-0.09,0.588l-0.679,0.543c0,4.133-0.045,6.983-0.136,8.551
			c2.201,0.031,3.574,0.061,4.117,0.091c0.21,0,0.376,0.03,0.498,0.09c0.392,0.09,0.648,0.287,0.769,0.588
			c0.03-0.03,0.045-0.06,0.045-0.091c0.21-0.452,0.588-0.679,1.131-0.679c0.091,0,0.181,0,0.271,0L239.111,284.559z M238.342,242.03
			c-0.333,0.09-0.453,0.121-0.362,0.09l0.181,0.045l0.09-0.045c0.06-0.03,0.091-0.045,0.091-0.045S238.342,242.06,238.342,242.03z
			 M239.654,242.21c-0.121,0.061-0.333,0.181-0.633,0.362c0.21,0.121,0.422,0.271,0.633,0.452V242.21z M240.423,243.659l3.665-2.172
			c-1.267,0-2.474,0.076-3.619,0.226L240.423,243.659z M240.921,244.292c0.271,0.332,0.498,0.649,0.679,0.95
			c0.453-0.543,1.191-1.433,2.217-2.669L240.921,244.292z M242.55,248.816c0.03,0.332,0.06,0.739,0.09,1.221
			c0.754-0.663,1.734-1.477,2.941-2.443c-1.297,0.814-2.142,1.176-2.534,1.086c-0.151-0.06-0.256-0.151-0.316-0.271
			c-0.121-0.211,0.346-0.814,1.402-1.81c1.538-1.478,2.654-2.579,3.348-3.303c-0.242,0.151-0.287,0.181-0.136,0.091
			c-2.655,1.75-4.374,2.82-5.158,3.212C242.278,247.022,242.398,247.761,242.55,248.816z M242.324,283.021
			c-0.031,0.845-0.061,1.448-0.091,1.81c0.332-0.21,0.98-0.633,1.946-1.267c8.687-5.64,14.085-9.38,16.197-11.221L242.324,283.021z
			 M242.369,281.256c1.568-1.327,4.072-3.182,7.511-5.565c-4.284,2.896-6.651,4.298-7.104,4.208c-0.151-0.06-0.256-0.15-0.316-0.271
			l-0.045-0.045c-0.03,0.754-0.045,1.131-0.045,1.131S242.369,280.894,242.369,281.256z M248.296,241.804
			c-0.875-0.151-1.719-0.241-2.534-0.271c-1.418,1.659-2.534,3.001-3.348,4.026c0.844-0.512,2.353-1.462,4.524-2.85
			C247.662,242.226,248.115,241.924,248.296,241.804z M242.414,279.22c0.241-0.512,3.257-2.744,9.049-6.696
			c2.624-1.81,4.509-3.122,5.655-3.936l-14.659,8.687C242.459,277.878,242.444,278.526,242.414,279.22z M242.504,276.234
			c0.362-0.271,1.403-0.965,3.122-2.081c7.269-4.796,11.959-8.068,14.071-9.818c-10.618,6.696-16.243,9.969-16.876,9.818
			c-0.121-0.03-0.211-0.105-0.271-0.227C242.55,274.711,242.534,275.48,242.504,276.234z M242.686,273.383
			c8.385-6.092,14.297-10.406,17.735-12.939c-1.991,1.056-5.972,3.544-11.944,7.465c-3.017,1.961-4.962,3.212-5.836,3.755
			c-0.03,0.694-0.045,1.297-0.045,1.81C242.595,273.444,242.625,273.414,242.686,273.383z M249.427,265.511
			c-3.8,2.262-6.018,3.318-6.651,3.167l-0.09-0.045c-0.03,0.604-0.045,1.176-0.045,1.719L249.427,265.511z M256.078,257.91
			l-13.347,7.917l-0.045,1.855L256.078,257.91z M242.912,253.929c-0.242-0.422,1.96-2.518,6.605-6.289
			c-0.965,0.573-3.228,1.93-6.786,4.072c0.029,1.237,0.045,2.79,0.045,4.66l5.384-4.208c-2.534,1.539-4.133,2.233-4.796,2.082
			C243.153,254.216,243.002,254.11,242.912,253.929z M259.154,249.812c-3.348,1.75-8.808,5.158-16.378,10.225v1.945L259.154,249.812
			z M254.901,250.083c-3.469,2.052-7.36,4.374-11.673,6.968c-0.151,0.09-0.287,0.075-0.407-0.045l-0.045,1.991
			C247.481,255.558,251.523,252.587,254.901,250.083z M242.776,263.792c0.543-0.482,1.236-1.056,2.081-1.719
			c-1.116,0.604-1.81,0.89-2.081,0.859V263.792z M261.959,251.667c-10.196,6.305-16.575,10.693-19.138,13.166l19.138-11.356V251.667
			z M262.095,268.542c-8.958,5.821-15.247,10.15-18.866,12.985l18.414-10.904c0.09-0.06,0.196-0.075,0.317-0.045
			c0.029,0.03,0.075,0.061,0.135,0.09V268.542z M246.079,285.373c0.875-0.753,3.665-2.88,8.37-6.379
			c-4.977,3.107-8.551,5.233-10.723,6.379H246.079z M257.344,244.925c-0.664-0.482-1.357-0.875-2.081-1.176
			c-0.664-0.301-1.433-0.588-2.308-0.86c-3.771,2.896-6.817,5.293-9.139,7.194c6.092-3.62,9.456-5.595,10.089-5.927
			c-0.121,0.121-0.061,0.076,0.181-0.136v0.045c0.181-0.09,0.301-0.12,0.362-0.09c0.151,0.03,0.241,0.136,0.271,0.317
			c0.03,0.151-0.016,0.287-0.136,0.407c-5.671,4.464-9.2,7.375-10.587,8.732c1.538-0.422,5.625-3.001,12.261-7.737
			C256.861,245.272,257.224,245.016,257.344,244.925z M244.586,247.278c0.995-0.572,2.76-1.734,5.293-3.483
			c0.875-0.573,1.508-0.996,1.9-1.267c-0.724-0.21-1.493-0.392-2.307-0.543c-0.121,0.543-1.719,2.278-4.796,5.203l-0.045,0.045
			L244.586,247.278z M244.722,267.23c3.287-1.629,9.048-5.218,17.283-10.768c-0.03-0.422-0.045-1.041-0.045-1.855L244.722,267.23z
			 M262.004,260.218c-0.785,0.633-3.786,2.85-9.003,6.65c-1.81,1.328-3.635,2.655-5.475,3.981c3.77-2.231,8.385-5.082,13.845-8.551
			c0.09-0.06,0.196-0.075,0.317-0.045c0.09,0.031,0.165,0.091,0.226,0.181c0.452,0.785-2.188,3.137-7.917,7.058l7.239-4.298
			c0.09-0.03,0.196-0.03,0.317,0c0.09,0.03,0.165,0.09,0.226,0.181c0.301,0.513-2.986,3.122-9.863,7.827
			c-3.077,2.081-5.188,3.544-6.334,4.389c0.996-0.663,2.744-1.84,5.248-3.529c6.273-4.253,10.014-6.544,11.221-6.877
			L262.004,260.218z M255.987,254.291c3.106-1.96,5.127-3.227,6.063-3.8v-0.045l-0.09-0.136c-0.121-0.21-0.167-0.422-0.136-0.633
			l0.045-0.045c-0.242-0.06-0.423-0.181-0.543-0.362v-0.045l-14.659,10.903c1.839-1.115,2.76-1.674,2.76-1.674
			S251.613,257.066,255.987,254.291z M251.417,285.373c-0.061-0.422,2.503-2.744,7.691-6.968c0.844-0.693,1.432-1.161,1.765-1.402
			c-2.232,0.814-6.681,3.604-13.347,8.37H251.417z M257.978,245.423l-0.045,0.091l-9.637,7.556c5.761-3.439,9.425-5.61,10.994-6.515
			c-0.423-0.422-0.634-0.634-0.634-0.634S258.43,245.755,257.978,245.423z M248.974,281.392c3.861-2.353,8.234-5.082,13.121-8.189
			v-1.674C261.401,272.766,257.028,276.053,248.974,281.392z M262.004,257.503l-9.908,7.058c5.459-3.499,8.762-5.414,9.908-5.746
			V257.503z M255.716,285.418l3.755-4.072c-3.891,2.323-6.168,3.665-6.832,4.027L255.716,285.418z M253.272,252.3
			c3.74-2.322,6.213-3.665,7.42-4.026c-0.271-0.392-0.498-0.708-0.679-0.95c-0.302,0.211-0.92,0.664-1.855,1.357
			C256.831,249.676,255.203,250.883,253.272,252.3z M262.14,276.913c-0.211,0.211-1.056,0.92-2.534,2.126
			c-2.504,2.051-4.313,3.544-5.429,4.479c1.93-1.116,4.373-2.563,7.33-4.343c0.181-0.12,0.346-0.075,0.498,0.136
			c0.151,0.181,0.136,0.347-0.045,0.498l-3.575,3.891c1.749-1.116,3.016-1.885,3.801-2.308
			C262.186,280.306,262.17,278.813,262.14,276.913z M262.14,274.289c-1.84,1.357-3.529,2.609-5.067,3.755
			c2.534-1.478,4.117-2.141,4.751-1.991c0.12,0,0.226,0.045,0.316,0.136V274.289z M259.833,285.418l2.353-3.122
			c-1.026,0.604-2.669,1.645-4.932,3.122H259.833z M262.186,283.608l-1.086,1.448l1.086-0.633V283.608z M262.23,285.418
			c0.121,0.392,0.121,0.362,0-0.091l-0.09,0.091H262.23z M271.099,242.301h0.045l0.091,0.045c-0.031,0-0.016,0.016,0.045,0.045
			c0.03-0.06,0.075-0.105,0.136-0.136C270.872,242.346,270.766,242.362,271.099,242.301z M272.139,242.753
			c0.362,0.211,0.663,0.453,0.905,0.724c-0.03-0.482-0.061-0.875-0.09-1.176L272.139,242.753z M274.673,241.894l-0.95,0.09
			c0.03,0.362,0.06,0.905,0.09,1.629c1.296-0.875,2.247-1.478,2.851-1.81C275.909,241.804,275.245,241.834,274.673,241.894z
			 M273.723,244.654c0.12,0.242,0.226,0.528,0.316,0.86c1.086-1.146,1.885-2.021,2.398-2.625
			C275.652,243.372,274.748,243.96,273.723,244.654z M274.266,246.418c1.779-1.025,4.162-2.489,7.148-4.389
			c-1.207-0.12-2.383-0.196-3.529-0.226C278.066,242.166,276.859,243.704,274.266,246.418z M279.197,244.382
			c-2.021,1.267-3.605,2.232-4.751,2.896c0.091,0.483,0.181,1.026,0.271,1.629c0-0.06,0.03-0.105,0.091-0.136L279.197,244.382z
			 M274.809,249.676c0.06,0.453,0.12,1.041,0.181,1.765l9.728-8.099c-2.353,1.297-5.49,3.318-9.411,6.063
			c-0.211,0.121-0.393,0.091-0.543-0.09v-0.045v0.181c0.03,0.09,0.045,0.136,0.045,0.136S274.809,249.616,274.809,249.676z
			 M275.035,252.3c0.03,0.453,0.06,0.936,0.09,1.448c0.844-0.633,2.82-2.065,5.927-4.298c3.86-2.835,6.379-4.706,7.556-5.61
			l-0.091-0.045c-1.599,0.845-4.66,2.79-9.185,5.836C276.678,251.44,275.245,252.331,275.035,252.3z M275.125,285.056h0.407
			c0.151-0.935,2.76-3.106,7.827-6.515c-4.253,2.534-6.998,4.148-8.234,4.841V285.056z M275.17,255.105
			c0.03,0.543,0.045,1.086,0.045,1.629l10.18-7.691L275.17,255.105z M275.17,279.582c10.194-6.273,16.514-10.632,18.957-13.076
			l-18.912,11.175L275.17,279.582z M275.17,282.206l6.877-4.932c-3.348,2.021-5.641,3.243-6.877,3.665V282.206z M275.216,276.731
			c10.617-6.424,17.358-10.994,20.224-13.708c0,0.542,0,0.392,0-0.453c-3.197,1.659-9.924,5.731-20.179,12.216L275.216,276.731z
			 M275.261,258.906c1.176-0.935,3.514-2.534,7.013-4.796c-3.318,2.021-5.655,3.363-7.013,4.026V258.906z M275.261,273.112
			c1.296-0.965,4.268-2.88,8.913-5.746c5.882-3.589,9.516-5.972,10.904-7.148c-0.664,0.422-1.946,1.267-3.846,2.534
			c-9.622,6.304-14.871,9.351-15.745,9.139c-0.061-0.03-0.121-0.06-0.181-0.091L275.261,273.112z M292.951,249.676
			c-1.991,0.362-7.873,3.997-17.645,10.904c0,0.604,0.015,1.267,0.045,1.991c0.301-0.271,1.538-1.161,3.71-2.669
			C287.356,254.17,291.985,250.762,292.951,249.676z M275.306,264.516c1.296-0.935,4.042-2.654,8.234-5.158
			c6.183-3.74,9.878-6.168,11.084-7.284l-19.002,11.22c-0.09,0.061-0.196,0.076-0.316,0.045V264.516z M275.306,267.954
			c9.501-6.816,15.745-11.295,18.731-13.437c-3.409,1.599-9.653,5.49-18.731,11.673V267.954z M295.258,256.644
			c-2.081,0.271-8.732,4.374-19.952,12.306c0,0.754,0,1.373,0,1.855c0.513-0.633,3.242-2.473,8.189-5.52
			c6.968-4.282,10.904-6.982,11.809-8.098C295.304,257.066,295.288,256.885,295.258,256.644z M295.349,259.086
			c0-0.301,0-0.573,0-0.814c-1.297,1.267-5.113,3.846-11.447,7.737c-4.253,2.594-6.787,4.238-7.601,4.932
			c1.629-0.663,6.47-3.634,14.523-8.913C293.237,260.459,294.745,259.479,295.349,259.086z M280.147,285.056l0.045-0.045
			c6.816-4.584,11.657-8.054,14.523-10.406l-17.6,10.451H280.147z M295.53,271.619c-0.664,0.422-1.945,1.252-3.846,2.488
			c-7.903,5.067-12.729,8.37-14.478,9.908l18.323-10.813v-0.996V271.619z M292.408,246.826c-0.211-0.241-0.393-0.467-0.543-0.679
			c-0.181-0.151-0.377-0.332-0.588-0.543l-13.708,10.361C281.157,253.914,286.104,250.868,292.408,246.826z M284.626,242.482
			c-0.543-0.12-1.252-0.226-2.126-0.316c-0.031,0.09-0.061,0.151-0.091,0.181l-3.981,3.937
			C281.082,244.503,283.148,243.236,284.626,242.482z M285.35,274.017c-1.931,1.297-4.072,2.685-6.424,4.162
			c4.222-2.413,9.742-5.942,16.559-10.587c0-0.633,0-1.161,0-1.583C294.851,267.275,291.473,269.945,285.35,274.017z
			 M290.553,245.061c-0.362-0.301-0.754-0.573-1.176-0.814c-0.996,0.814-3.62,2.76-7.873,5.836c-1.086,0.785-1.9,1.373-2.443,1.765
			L290.553,245.061z M287.612,243.342c-0.181-0.09-0.302-0.15-0.362-0.181c-0.121-0.03-0.377-0.12-0.769-0.271l-5.972,4.977
			C283.827,245.634,286.194,244.126,287.612,243.342z M281.052,278.994c4.072-2.413,8.897-5.278,14.478-8.596l-0.045-1.81
			L281.052,278.994z M284.626,285.056c0.482-0.422,1.644-1.312,3.483-2.669c3.981-2.925,6.334-4.795,7.058-5.61
			c-1.871,0.785-6.395,3.544-13.573,8.279H284.626z M294.625,251.124c-0.061-0.15-0.121-0.286-0.181-0.407
			c-0.121-0.392-0.287-0.799-0.498-1.221c-0.121,0.724-3.363,3.318-9.727,7.782L294.625,251.124z M295.53,277.546
			c-0.814,0.875-3.122,2.714-6.922,5.52c-0.875,0.634-1.523,1.102-1.946,1.403c1.236-0.754,3.151-1.975,5.746-3.665
			c1.839-1.206,2.835-1.794,2.986-1.764c0.06,0.03,0.105,0.061,0.136,0.09V277.546z M292.86,281.482
			c-2.533,1.659-4.404,2.851-5.61,3.574c0.995,0,2.005,0,3.031,0c-0.09-0.422,0.784-1.628,2.624-3.619h-0.045V281.482z
			 M289.467,265.059c2.744-1.629,4.735-2.744,5.972-3.348l-0.045-0.724C294.338,261.862,292.363,263.219,289.467,265.059z
			 M293.72,248.997c-0.211-0.422-0.423-0.814-0.633-1.176c-0.604,0.543-1.719,1.357-3.348,2.443c1.93-1.056,3.167-1.523,3.71-1.403
			C293.539,248.892,293.63,248.937,293.72,248.997z M295.168,254.698c-0.392,0.271-1.252,0.89-2.579,1.855
			c-1.086,0.785-1.795,1.297-2.126,1.539c2.292-1.297,3.891-2.021,4.795-2.172C295.228,255.467,295.198,255.06,295.168,254.698z
			 M295.53,279.763c-0.09,0.151-0.377,0.483-0.859,0.996c-1.599,1.689-2.669,2.866-3.212,3.529c0.996-0.543,2.368-1.417,4.117-2.624
			L295.53,279.763z M294.489,283.382c-1.207,0.814-2.142,1.388-2.805,1.719c0.513,0,0.996,0,1.448,0
			c0.211-0.271,0.482-0.618,0.814-1.041C294.157,283.79,294.338,283.563,294.489,283.382z M295.439,264.063
			c-0.875,0.785-2.097,1.735-3.665,2.85l3.167-1.855c0.09-0.06,0.196-0.075,0.316-0.045c0.091,0.031,0.166,0.091,0.227,0.181
			L295.439,264.063z M295.53,274.922c-0.664,0.604-1.523,1.297-2.579,2.081c1.236-0.663,2.096-1.041,2.579-1.131V274.922z
			 M294.942,252.798c-0.333,0.302-0.74,0.649-1.222,1.041c0.513-0.241,0.95-0.422,1.312-0.543
			C295.002,253.114,294.972,252.949,294.942,252.798z M294.489,285.147c0.362-0.211,0.724-0.437,1.086-0.679v-1.222
			c-0.211,0.332-0.543,0.769-0.996,1.312c-0.151,0.211-0.302,0.407-0.452,0.588h0.181
			C294.399,285.147,294.459,285.147,294.489,285.147z"/>
		<path fill="#DEDDDD" d="M360.958,241.034c0.996,0.121,1.493,0.543,1.493,1.267c0,0.724-0.453,1.131-1.357,1.222h-0.136
			c-0.061,0.03-0.121,0.045-0.181,0.045h-0.091c-0.211,0-0.423-0.06-0.633-0.181c-1.086-0.03-2.624-0.06-4.615-0.091
			c-0.121,0.302-0.347,0.498-0.679,0.588c-0.543,1.176-1.885,4.343-4.027,9.501l-0.498,1.176c-3.771,9.11-6.41,15.232-7.917,18.369
			c-3.981,8.386-7.254,14.643-9.818,18.776c-0.604,0.996-1.041,1.719-1.312,2.172c-2.957,4.856-5.339,7.963-7.148,9.32
			c-1.147,0.904-3.212,1.734-6.199,2.488l-0.226,0.09c-0.483,0.121-0.785,0.197-0.905,0.227c-0.181,0.182-0.377,0.301-0.588,0.361
			c-0.151,0.061-0.302,0.092-0.452,0.092c-0.423,0-1.086,0.045-1.991,0.135c-1.086,0.092-1.9,0.137-2.443,0.137
			c-0.814,0-1.508-0.076-2.081-0.227c-2.081-0.482-3.755-1.389-5.022-2.715c-1.176-1.176-1.976-2.594-2.398-4.253l-0.045-0.136
			c-0.061-0.211-0.09-0.407-0.09-0.588c-0.393-2.293-0.09-4.329,0.905-6.108c0.996-1.75,2.79-3.258,5.384-4.524
			c0.996-0.513,2.277-0.83,3.846-0.95c0.241-0.03,0.482-0.045,0.724-0.045c1.296,0,2.428,0.181,3.393,0.543
			c1.629,0.573,2.88,1.342,3.755,2.308c0.844,0.935,1.463,2.126,1.855,3.574l0.045,0.045c0.06,0.09,0.075,0.181,0.045,0.271
			c0.03,0.181,0.045,0.256,0.045,0.227c0.332,1.598,0.286,3.333-0.136,5.203c-0.271,1.115-0.739,2.186-1.402,3.213
			c1.115-0.393,1.96-0.814,2.534-1.268c1.598-1.176,3.785-4.057,6.56-8.642c0.271-0.483,0.708-1.207,1.312-2.172l0.226-0.407
			c0.151-0.242,0.271-0.438,0.362-0.588c-0.211-0.362-0.604-1.176-1.176-2.443c-0.423,0.271-0.574,0.362-0.453,0.271
			c-0.09,0.06-0.196,0.075-0.317,0.045c-0.09-0.03-0.166-0.09-0.226-0.181c-0.151-0.271,0.015-0.708,0.498-1.312
			c-0.271-0.573-0.588-1.282-0.95-2.126l-0.588-1.357c-0.785-1.719-1.402-3.091-1.855-4.117c-0.333,0.211-0.559,0.302-0.679,0.271
			c-0.09-0.029-0.166-0.09-0.226-0.181c-0.151-0.271,0.015-0.618,0.498-1.041c-0.151-0.301-0.317-0.679-0.498-1.131
			c-0.513,0.271-0.845,0.393-0.996,0.362c-0.121-0.029-0.211-0.105-0.271-0.226c-0.121-0.181-0.09-0.346,0.091-0.498l0.769-0.543
			c-0.242-0.513-0.453-0.995-0.633-1.448c-0.393,0.271-0.619,0.423-0.679,0.453c-0.242,0.151-0.438,0.121-0.588-0.091
			c-0.121-0.21-0.076-0.392,0.136-0.543c-0.03,0,0.226-0.196,0.769-0.588c-0.09-0.211-0.256-0.588-0.498-1.131
			c-0.151,0.031-0.271,0.031-0.362,0c-0.211-0.03-0.362-0.12-0.453-0.271c-0.121-0.21-0.076-0.392,0.136-0.543
			c0.181-0.12,0.256-0.165,0.227-0.136c-2.021-4.403-3.575-7.676-4.66-9.818c-0.362-0.724-0.785-1.538-1.267-2.443
			c-0.452,0.332-0.633,0.468-0.543,0.407c-0.211,0.151-0.392,0.121-0.543-0.09s-0.121-0.407,0.091-0.588l0.633-0.453
			c-0.573-1.025-1.162-2.111-1.765-3.257c-0.423,0.181-0.709,0.256-0.859,0.226c-0.121-0.06-0.211-0.136-0.271-0.226
			c-0.151-0.271,0-0.663,0.452-1.176c-0.573-1.025-1.161-2.066-1.764-3.122l-0.362,0.227c-0.242,0.121-0.422,0.061-0.543-0.181
			c-0.121-0.181,0.015-0.498,0.407-0.95c-0.271-0.452-0.573-0.95-0.905-1.493v-0.045c-0.392-0.663-0.754-1.282-1.086-1.855
			c-0.061-0.03-0.075-0.03-0.045,0c-0.121-0.091-0.181-0.211-0.181-0.362c-0.543-0.934-0.95-1.628-1.222-2.081
			c-0.03-0.06-0.061-0.105-0.09-0.136l-0.045-0.045c-1.025,0.03-1.84,0.061-2.443,0.09c-0.483,0.03-0.98,0.106-1.493,0.226h-0.136
			c-0.242,0.09-0.468,0.106-0.679,0.045c-0.09,0-0.151-0.015-0.181-0.045c-0.604-0.21-0.89-0.618-0.86-1.222
			c0.03-0.663,0.377-1.041,1.041-1.131c0.06,0,0.12,0,0.181,0h0.226c0.543-0.12,1.131-0.196,1.765-0.226
			c1.296-0.121,6.545-0.196,15.745-0.227l3.258-0.045c5.972-0.03,9.757-0.045,11.356-0.045c0.301-0.21,0.603-0.286,0.905-0.226
			c0.03,0,0.12,0.016,0.271,0.045h0.136c1.176,0.121,1.734,0.559,1.674,1.312c0,0.604-0.392,0.981-1.176,1.131
			c-0.664,0.09-2.474,0.136-5.429,0.136c0.211,0.483,0.527,1.192,0.95,2.126c0.21-0.09,0.377-0.12,0.498-0.09
			c0.151,0.03,0.256,0.106,0.317,0.226c0.12,0.211,0.09,0.392-0.09,0.543l-0.271,0.181c0.663,1.448,1.93,4.133,3.8,8.054
			l0.453,0.995c0.542,1.116,0.995,2.066,1.357,2.851c0.301-0.06,0.527-0.075,0.679-0.045c0.181,0.03,0.317,0.121,0.407,0.271
			c0.12,0.181-0.061,0.468-0.543,0.859c1.478,3.138,2.488,5.309,3.031,6.515c0.996-2.292,2.563-6.001,4.706-11.13l0.452-1.041
			c2.262-5.459,3.725-8.913,4.389-10.361c-3.318,0-5.61,0.061-6.877,0.181c-0.121,0.181-0.287,0.317-0.498,0.407
			c-0.121,0.03-0.271,0.045-0.453,0.045c-0.513,0-0.875-0.21-1.085-0.633c-0.302-0.512-0.317-0.995-0.045-1.448
			c0.452-0.633,3.423-0.95,8.913-0.95c2.443,0,5.203,0.045,8.279,0.136H360.958z M309.788,292.748
			c-3.288,1.93-5.535,3.212-6.741,3.846c-0.03,0.482-0.016,0.98,0.045,1.493L309.788,292.748z M303.272,299.172
			c0.332,1.297,0.95,2.428,1.855,3.395l12.035-9.276c-1.388,0.724-3.997,2.368-7.827,4.932c-3.047,2.051-4.721,3.045-5.022,2.987
			c-0.121-0.031-0.211-0.107-0.271-0.227c-0.121-0.182-0.09-0.348,0.091-0.498l9.094-7.058L303.272,299.172z M303.906,293.517
			c-0.242,0.392-0.438,0.874-0.588,1.448c1.629-1.418,2.986-2.625,4.072-3.62c-0.724,0.422-1.162,0.603-1.312,0.543
			c-0.121,0-0.211-0.061-0.271-0.181c-0.061-0.09-0.076-0.181-0.045-0.271C304.886,292.16,304.268,292.853,303.906,293.517z
			 M311.824,288.812c-0.814,0.06-1.493,0.166-2.036,0.317c0.09,0.029,0.166,0.09,0.226,0.181c0.211,0.392-1.508,2.187-5.158,5.384
			c2.534-1.479,5.701-3.348,9.501-5.61c0.21-0.121,0.392-0.09,0.543,0.09c0.12,0.211,0.09,0.392-0.091,0.543l-8.325,6.651
			l10.768-6.198c-0.604-0.393-1.252-0.709-1.946-0.95c-0.785-0.271-1.734-0.407-2.85-0.407H311.824z M308.611,289.581
			c-0.785,0.392-1.569,0.875-2.353,1.448c0.512-0.271,1.493-0.845,2.941-1.719C308.928,289.429,308.731,289.52,308.611,289.581z
			 M307.345,304.148C307.374,304.119,307.374,304.119,307.345,304.148c2.201-1.658,4.328-3.287,6.379-4.886
			c-3.559,2.292-6.047,3.71-7.465,4.253C306.59,303.756,306.952,303.969,307.345,304.148z M319.967,294.195
			c-0.151-0.604-0.347-1.161-0.588-1.674c-0.03,0.06-0.076,0.105-0.136,0.136l-12.94,10.044c2.202-0.996,6.696-3.8,13.483-8.415
			C319.847,294.255,319.907,294.225,319.967,294.195z M308.204,304.557c0.453,0.18,0.889,0.316,1.312,0.406
			c0.181,0.061,0.392,0.105,0.633,0.137l6.018-5.158L308.204,304.557z M309.562,242.708l0.045,0.09c0.03-0.03,0.075-0.06,0.136-0.09
			H309.562z M310.466,244.247c0.15,0.271,0.256,0.453,0.317,0.543c1.598-0.995,2.79-1.704,3.574-2.126
			c-1.479,0-2.745,0.016-3.801,0.045c0.03,0.061,0.045,0.136,0.045,0.226L310.466,244.247z M319.017,291.888
			c-0.211-0.302-0.407-0.559-0.588-0.769c-0.09-0.091-0.242-0.227-0.453-0.407l-7.148,5.565c4.706-3.107,7.42-4.57,8.144-4.389
			C318.911,291.858,318.927,291.858,319.017,291.888z M311.19,245.468c0.15,0.271,0.346,0.604,0.588,0.995l2.262-2.714
			C313.226,244.201,312.276,244.775,311.19,245.468z M317.117,303.516c0.543-0.453,0.95-0.859,1.222-1.221
			c0.271-0.363,0.527-0.785,0.769-1.268l-7.104,4.072c0.453,0,0.95-0.031,1.493-0.092c0.905-0.09,1.599-0.135,2.081-0.135
			c0.06-0.061,0.121-0.121,0.181-0.182c0.15-0.09,0.513-0.211,1.086-0.361C316.755,303.998,316.846,303.727,317.117,303.516z
			 M315.488,246.056c-1.267,0.754-2.262,1.313-2.986,1.674c-0.061-0.12,0.06,0.09,0.362,0.633
			C313.527,247.73,314.402,246.961,315.488,246.056z M315.896,242.663c-0.03,0.061-0.061,0.121-0.09,0.181l-3.303,3.981
			c1.598-0.875,3.92-2.277,6.967-4.208C318.082,242.618,316.891,242.633,315.896,242.663z M320.148,297.363
			c0.06-0.754,0.06-1.448,0-2.082c-1.116,0.935-3.574,2.835-7.375,5.701l6.786-3.891c0.211-0.121,0.392-0.091,0.543,0.09
			C320.133,297.242,320.148,297.302,320.148,297.363z M319.922,298.946c0.09-0.423,0.165-0.89,0.226-1.403
			c-0.03,0.09-0.076,0.151-0.136,0.181l-6.741,5.746l6.108-3.529c0.06-0.03,0.136-0.045,0.226-0.045
			C319.726,299.564,319.832,299.247,319.922,298.946z M313.588,249.63c0.332,0.543,0.618,1.041,0.86,1.493
			c0.09-0.753,1.402-2.171,3.936-4.253L313.588,249.63z M320.691,242.618c-0.03,0.121-0.076,0.211-0.136,0.271
			c-2.835,2.293-5.128,4.223-6.877,5.792l10.044-5.792c0.241-0.12,0.422-0.075,0.543,0.136c0.15,0.211,0.12,0.393-0.09,0.543
			c-5.219,3.68-8.174,6.124-8.868,7.33c1.177-0.301,5.158-2.684,11.944-7.148c0.814-0.573,1.312-0.905,1.493-0.996l0.045-0.045
			c0.12-0.06,0.226-0.075,0.316-0.045c0.181,0.03,0.287,0.136,0.317,0.317c0.03,0.181-0.03,0.316-0.181,0.407
			c-6.515,4.253-11.084,7.496-13.708,9.727c0.03,0,0.09,0.091,0.181,0.271c3.046-1.598,8.128-4.645,15.247-9.139
			c-0.151-0.362-0.271-0.633-0.362-0.814c-0.061-0.12-0.121-0.286-0.181-0.498v-0.09c-0.031-0.091-0.045-0.181-0.045-0.271
			c-1.086,0-3.017,0.016-5.791,0.045H320.691z M314.719,251.621c0.21,0.333,0.362,0.604,0.452,0.814
			c0.422-0.392,0.92-0.814,1.493-1.267c-0.875,0.423-1.478,0.604-1.81,0.543C314.855,251.712,314.81,251.682,314.719,251.621z
			 M321.822,250.852c-2.504,1.479-4.419,2.549-5.746,3.212c0.12,0.211,0.286,0.498,0.498,0.86
			C317.509,254.08,319.258,252.723,321.822,250.852z M317.253,256.191c0.12,0.181,0.286,0.468,0.498,0.86l11.13-8.144
			c-0.724,0.453-1.81,1.146-3.257,2.081C321.159,253.914,318.368,255.648,317.253,256.191z M331.867,246.147
			c-0.211-0.422-0.393-0.799-0.543-1.131c-6.968,4.917-11.628,8.325-13.98,10.225c1.206-0.633,3.83-2.277,7.873-4.932
			C328.563,248.138,330.781,246.75,331.867,246.147z M332.229,249.404c-1.689,0.333-6.379,3.138-14.071,8.416
			c0.241,0.513,0.482,0.995,0.724,1.448c0.422-0.663,2.79-2.443,7.103-5.339C329.574,251.486,331.655,249.978,332.229,249.404z
			 M319.515,260.444c0.09,0.181,0.226,0.453,0.407,0.814c0.422-0.513,1.161-1.206,2.217-2.081c-1.297,0.754-2.202,1.116-2.715,1.085
			C319.364,260.143,319.394,260.203,319.515,260.444z M334.129,250.988c-0.694-1.508-1.267-2.744-1.72-3.71l-4.615,3.394
			c2.654-1.508,4.298-2.202,4.932-2.082c0.181,0.061,0.317,0.167,0.407,0.317c0.301,0.543-1.945,2.428-6.741,5.655
			c-3.921,2.685-6.153,4.329-6.696,4.932c0.875-0.21,3.71-1.96,8.506-5.248c3.438-2.353,5.339-3.484,5.701-3.394
			C333.962,250.852,334.038,250.897,334.129,250.988z M320.375,262.253c0.784,1.539,1.674,3.424,2.669,5.656
			c4.253-3.077,7.767-5.67,10.542-7.782l-10.768,6.199c-0.211,0.151-0.393,0.106-0.543-0.136c-0.211-0.362,1.357-1.84,4.705-4.434
			c-2.745,1.84-4.464,2.685-5.158,2.534c-0.181-0.06-0.332-0.166-0.452-0.317c-0.121-0.21-0.076-0.392,0.136-0.543
			c5.188-3.589,9.018-6.409,11.492-8.46L320.375,262.253z M334.265,251.259c0,0.121-0.061,0.227-0.181,0.317
			c-5.731,3.861-9.863,6.862-12.397,9.003l13.211-7.646c0.03,0,0.075-0.015,0.136-0.045
			C334.731,252.255,334.475,251.712,334.265,251.259z M323.406,268.678c0.241,0.483,0.453,0.92,0.634,1.312
			c6.846-4.977,11.582-8.445,14.206-10.406l-0.09-0.136c-3.017,1.418-4.524,2.126-4.524,2.126S330.222,263.943,323.406,268.678z
			 M336.074,255.06c-0.151-0.332-0.377-0.814-0.679-1.448c-0.664,1.177-4.495,4.224-11.492,9.14
			c1.206-0.694,3.317-2.096,6.334-4.208c3.408-2.353,5.308-3.483,5.701-3.393c0.09,0.03,0.181,0.09,0.271,0.181L336.074,255.06z
			 M339.151,261.575c-0.242-0.542-0.438-0.965-0.588-1.267c-0.845,0.664-3.152,2.368-6.922,5.112
			c-1.871,1.357-4.283,3.122-7.239,5.293c2.925-1.357,7.782-4.388,14.568-9.094C339.03,261.59,339.09,261.575,339.151,261.575z
			 M324.673,271.438c0.332,0.694,0.437,0.92,0.316,0.679c1.719-1.267,3.318-2.428,4.796-3.484
			C327.583,269.96,325.879,270.895,324.673,271.438z M325.352,272.976c0.181,0.393,0.376,0.83,0.588,1.313l12.08-9.049
			C335.334,266.627,331.112,269.206,325.352,272.976z M337.069,257.187c-0.03-0.091-0.106-0.271-0.226-0.543
			c-0.121-0.241-0.211-0.437-0.271-0.588l-0.271-0.498c0.03,0.151-0.016,0.271-0.136,0.362c-4.283,3.107-7.752,5.716-10.406,7.827
			L337.069,257.187z M326.438,275.329c0.181,0.422,0.332,0.754,0.452,0.995c0.875-0.633,2.488-1.719,4.841-3.257
			c5.64-3.71,8.762-5.942,9.365-6.696c-1.086,0.242-4.932,2.534-11.537,6.877C328.141,274.213,327.101,274.907,326.438,275.329z
			 M327.659,277.229c-0.061,0.031-0.121,0.061-0.181,0.091c-0.061,0.03-0.106,0.061-0.136,0.09c0.12,0.242,0.346,0.724,0.679,1.448
			c6.997-4.977,11.778-8.476,14.342-10.497l-0.045-0.045C339.965,269.493,335.079,272.464,327.659,277.229z M329.062,281.256
			c0.03-0.09,0.075-0.166,0.136-0.226l5.746-4.524c-3.137,1.961-5.278,3.122-6.424,3.484
			C328.85,280.803,329.031,281.226,329.062,281.256z M329.242,281.708l0.045,0.045l0.588,1.357c0.029,0.061,0.06,0.121,0.09,0.181
			c3.529-2.503,6.153-4.57,7.873-6.199c-4.977,3.288-7.782,4.857-8.416,4.706C329.363,281.769,329.302,281.739,329.242,281.708z
			 M341.322,271.393c0.241-0.572,0.513-1.191,0.814-1.855c-2.081,1.659-6.198,4.676-12.352,9.049
			C332.439,277.2,336.285,274.802,341.322,271.393z M330.554,284.604c0.271-0.271,0.558-0.543,0.86-0.814
			c-0.483,0.211-0.845,0.332-1.086,0.362C330.419,284.333,330.494,284.484,330.554,284.604z M335.757,282.704
			c0.362-0.724,0.769-1.522,1.222-2.398c-2.654,2.021-4.69,3.71-6.108,5.067l0.045,0.09c2.503-1.478,3.755-2.217,3.755-2.217
			S335.034,283.065,335.757,282.704z M335.079,283.971c-0.935,0.542-2.217,1.297-3.846,2.262c0.271,0.574,0.498,1.056,0.679,1.448
			c1.146-1.206,2.111-2.292,2.896-3.258c0.03-0.06,0.075-0.136,0.136-0.226C335.003,284.106,335.048,284.031,335.079,283.971z
			 M339.467,275.238c0.362-0.724,0.694-1.417,0.996-2.081l-8.416,6.651c1.991-1.146,4.343-2.654,7.058-4.524
			C339.226,275.224,339.347,275.209,339.467,275.238z M332.274,270.533c4.765-3.077,7.691-4.72,8.777-4.932
			c-0.151-0.362-0.332-0.784-0.543-1.267c-0.03,0.061-0.075,0.106-0.136,0.136L332.274,270.533z M332.455,288.721
			c-0.181,0.271-0.076,0.075,0.317-0.588l-0.498,0.271C332.334,288.555,332.394,288.66,332.455,288.721z M339.422,262.253
			c-0.091,0.061-0.151,0.106-0.181,0.136c-0.604,0.604-2.564,2.126-5.882,4.57c3.891-2.322,6.153-3.408,6.787-3.258
			c-0.03,0-0.016,0.016,0.045,0.045c-0.271-0.603-0.513-1.131-0.724-1.583l-0.09,0.09H339.422z M337.522,279.22
			c0.271-0.572,0.498-1.041,0.679-1.402c-0.966,0.935-2.368,2.111-4.208,3.529c1.025-0.663,2.051-1.372,3.076-2.126
			C337.22,279.129,337.371,279.129,337.522,279.22z M337.839,258.77c-0.031-0.06-0.151-0.317-0.362-0.77
			c-0.543,0.543-1.689,1.479-3.438,2.805C335.577,259.901,336.843,259.222,337.839,258.77z M341.685,266.868
			c-0.514,0.604-1.765,1.599-3.755,2.986c1.719-0.996,3.077-1.734,4.072-2.217C341.911,267.427,341.805,267.17,341.685,266.868z"/>
	</g>
</g>
</svg>
